<?xml version="1.0" encoding="UTF-8"?>
<svg height="100%" width="100%" xmlns="http://www.w3.org/2000/svg">
	<defs>
		<font horiz-adv-x="610" id="web">
			<font-face alphabetic="0" ascent="992" descent="-290" font-family="" panose-1="2 11 5 5 2 2 2 2 2 3"/>
			<missing-glyph d="M49 718H561V0H49ZM99 667V50H511V667ZM308 609Q363 609 397 573T432 478Q432 444 419 418T369 358Q344 335 334 321T322 290T320 234H274L272 251Q272 300 283 327T331 391Q358 417 369 434T381 474Q381 515 359 537T305 559Q272 559 250 536T223 464L173 472Q179 541 215 575T308 609ZM271 184H327V117H271Z"/>
			<glyph d="" horiz-adv-x="252" unicode=" "/>
			<glyph d="M123 708H189V384L183 212H129L123 384ZM156 84Q202 84 202 38Q202 -6 156 -6Q111 -6 111 38Q111 84 156 84Z" horiz-adv-x="312" unicode="!"/>
			<glyph d="M85 708H140L135 467H85ZM245 708H300L295 467H245Z" horiz-adv-x="385" unicode="&quot;"/>
			<glyph d="M299 648H352L306 473H510L556 648H610L564 473H680V429H553L498 220H621V175H486L440 0H387L433 175H229L183 0H129L175 175H60V220H187L242 429H120V473H253ZM295 429L240 220H444L499 429Z" horiz-adv-x="740" unicode="#"/>
			<glyph d="M286 752H340V680Q397 677 442 661T527 619L497 578Q456 604 413 616T319 629Q248 629 207 601T167 520Q167 469 202 444T321 400Q427 376 479 333T531 210Q531 132 477 86T340 32V-44H286V31Q219 34 169 52T79 104L113 146Q155 114 199 99T298 85Q375 85 420 116T465 209Q465 250 446 275T391 315T294 347Q194 371 147 408T101 518Q101 588 152 631T286 680Z" unicode="$"/>
			<glyph d="M306 721Q371 721 418 692T489 615T514 511Q514 454 489 406T418 329T306 301Q241 301 193 329T121 406T97 511Q97 567 121 615T193 692T306 721ZM786 709H848L430 0H368ZM307 667Q236 667 198 621T161 511Q161 446 198 400T307 355Q377 355 413 400T450 511Q450 575 413 621T307 667ZM914 409Q979 409 1026 380T1097 303T1122 199Q1122 142 1097 94T1026 17T914 -11Q849 -11 801 17T729 94T705 199Q705 255 729 303T801 380T914 409ZM915 355Q844 355 806 309T769 199Q769 134 806 88T915 43Q985 43 1021 88T1058 199Q1058 263 1021 309T915 355Z" horiz-adv-x="1220" unicode="%"/>
			<glyph d="M285 724Q339 724 379 704T441 649T463 571Q463 504 420 459T289 375L503 167Q546 247 559 337L613 327Q600 221 544 127L645 28L606 -14L509 80Q466 34 411 10T282 -14Q215 -14 163 10T82 79T53 183Q53 250 87 298T197 384Q147 434 126 471T105 564Q105 636 156 680T285 724ZM286 672Q234 672 203 643T172 565Q172 521 188 489T251 412Q332 449 365 482T398 569Q398 614 368 643T286 672ZM236 347Q172 312 147 275T122 185Q122 118 166 81T282 44Q402 44 469 119Z" horiz-adv-x="661" unicode="&amp;"/>
			<glyph d="M85 708H140L135 467H85Z" horiz-adv-x="225" unicode="'"/>
			<glyph d="M249 828L291 801Q218 694 177 588T137 354Q137 225 177 120T291 -93L249 -120Q163 -7 115 104T68 354Q68 493 115 604T249 828Z" horiz-adv-x="359" unicode="("/>
			<glyph d="M110 828Q196 715 243 604T291 354Q291 215 243 104T110 -120L68 -93Q141 15 181 120T222 354Q222 483 181 588T68 801Z" horiz-adv-x="359" unicode=")"/>
			<glyph d="M175 708H229L223 590L333 633L350 583L235 552L311 459L268 427L203 527L137 427L94 459L170 552L55 583L72 633L182 590Z" horiz-adv-x="405" unicode="*"/>
			<glyph d="M277 488H334V314H505V261H334V88H277V261H105V314H277Z" unicode="+"/>
			<glyph d="M130 84Q153 84 165 69T178 26Q178 -25 158 -69T82 -170L56 -148Q94 -103 109 -71T127 0Q85 4 85 42Q85 60 96 72T130 84Z" horiz-adv-x="262" unicode=","/>
			<glyph d="M46 318H265V265H46Z" horiz-adv-x="310" unicode="-"/>
			<glyph d="M129 84Q175 84 175 38Q175 -6 129 -6Q84 -6 84 38Q84 84 129 84Z" horiz-adv-x="258" unicode="."/>
			<glyph d="M347 784H404L182 -80H125Z" horiz-adv-x="530" unicode="/"/>
			<glyph d="M305 724Q435 724 500 626T565 354Q565 180 500 82T305 -16Q175 -16 110 82T45 354Q45 528 110 626T305 724ZM305 667Q204 667 158 585T113 354Q113 204 158 122T305 41Q406 41 451 122T497 354Q497 504 451 585T305 667Z" unicode="0"/>
			<glyph d="M313 708H373V57H529V0H112V56H305V637L108 532L81 582Z" unicode="1"/>
			<glyph d="M293 723Q366 723 418 696T497 625T524 526Q524 454 492 395T387 265T154 57H549V0H64V53Q238 203 315 278T424 406T455 521Q455 586 410 627T287 668Q228 668 184 646T94 581L54 617Q108 672 162 697T293 723Z" unicode="2"/>
			<glyph d="M290 724Q394 724 453 673T512 540Q512 465 474 426T380 374V372Q443 366 488 324T534 199Q534 101 466 42T279 -16Q197 -16 140 7T35 79L71 118Q118 76 165 58T279 40Q366 40 416 82T466 201Q466 275 421 309T303 343H194V398H288Q359 398 402 432T446 533Q446 597 404 632T284 668Q227 668 181 652T91 600L56 639Q107 683 162 703T290 724Z" unicode="3"/>
			<glyph d="M281 708H352L105 238H397V446H462V238H575V181H462V0H397V181H30V232Z" unicode="4"/>
			<glyph d="M102 708H514V652H167V405Q238 438 326 438Q429 438 489 380T550 225Q550 153 519 98T429 14T287 -16Q209 -16 153 7T47 79L85 118Q133 76 178 58T286 41Q379 41 430 90T482 224Q482 300 436 342T311 384Q263 384 225 375T149 347H102Z" unicode="5"/>
			<glyph d="M347 724Q397 724 435 712T510 677L484 631Q453 651 421 660T348 670Q242 670 183 588T119 364Q162 410 214 435T337 460Q404 460 455 433T535 356T564 239Q564 164 534 106T447 16T311 -16Q179 -16 115 72T51 311Q51 437 85 530T185 673T347 724ZM325 408Q203 408 119 300Q121 175 166 107T311 40Q401 40 448 93T496 237Q496 319 450 363T325 408Z" unicode="6"/>
			<glyph d="M41 707H575V654Q433 502 356 341T262 0H186Q213 182 287 341T494 650H41Z" unicode="7"/>
			<glyph d="M305 724Q367 724 418 703T499 643T530 548Q530 490 498 448T397 369Q490 336 527 295T565 180Q565 123 533 78T443 9T304 -16Q223 -16 164 9T75 78T45 180Q45 253 85 301T211 382Q141 411 111 448T81 546Q81 599 111 639T192 702T305 724ZM305 673Q238 673 192 638T147 544Q147 494 176 464T283 407L341 388Q406 422 435 458T464 543Q464 603 419 638T305 673ZM270 361Q186 332 150 291T114 186Q114 116 164 77T305 38Q394 38 445 77T496 183Q496 226 479 253T426 299T325 342Z" unicode="8"/>
			<glyph d="M303 724Q433 724 496 640T559 399Q559 270 509 177T365 35T134 -14V42Q297 42 390 123T491 345Q407 250 277 250Q211 250 158 277T76 355T46 478Q46 549 76 604T164 692T303 724ZM303 669Q212 669 163 617T114 480Q114 394 161 348T290 302Q355 302 406 331T492 410Q490 542 446 605T303 669Z" unicode="9"/>
			<glyph d="M129 84Q175 84 175 38Q175 -6 129 -6Q84 -6 84 38Q84 84 129 84ZM131 460Q177 460 177 414Q177 370 131 370Q86 370 86 414Q86 460 131 460Z" horiz-adv-x="260" unicode=":"/>
			<glyph d="M137 460Q183 460 183 414Q183 370 137 370Q92 370 92 414Q92 460 137 460ZM130 84Q153 84 165 69T178 26Q178 -25 158 -69T82 -170L56 -148Q94 -103 109 -71T127 0Q85 4 85 42Q85 60 96 72T130 84Z" horiz-adv-x="268" unicode=";"/>
			<glyph d="M472 523L499 480L173 284L499 88L472 45L111 258V308Z" unicode="&lt;"/>
			<glyph d="M105 218H505V165H105ZM105 418H505V365H105Z" unicode="="/>
			<glyph d="M138 523L499 308V258L138 45L111 88L437 284L111 480Z" unicode="&gt;"/>
			<glyph d="M241 723Q303 723 349 699T421 634T446 541Q446 497 429 463T388 406T327 353Q285 320 264 296T244 241V212H183V249Q183 291 206 319T276 385Q326 424 351 457T377 539Q377 597 339 632T237 668Q177 668 135 645T57 581L15 617Q60 668 113 695T241 723ZM213 84Q259 84 259 38Q259 -6 213 -6Q168 -6 168 38Q168 84 213 84Z" horiz-adv-x="491" unicode="?"/>
			<glyph d="M490 679Q612 679 697 637T825 521T868 355Q868 226 824 159T709 92Q655 92 625 123T592 197Q569 151 527 122T427 94Q358 94 319 139T280 259Q280 328 305 383T382 471T508 504Q554 504 595 490T668 457L635 251Q632 236 632 222Q632 181 653 158T708 136Q754 136 782 188T811 353Q811 478 731 554T489 630Q381 630 304 584T188 461T149 289Q149 133 238 45T489 -42Q595 -42 682 -9L698 -53Q603 -90 486 -90Q365 -90 276 -44T140 87T92 289Q92 395 140 484T279 626T490 679ZM504 460Q421 460 379 401T338 259Q338 202 364 171T439 140Q497 140 536 185T585 291L608 434Q556 460 504 460Z" horiz-adv-x="960" unicode="@"/>
			<glyph d="M291 708H364L646 0H573L503 182H150L79 0H8ZM327 646L170 235H483Z" horiz-adv-x="654" unicode="A"/>
			<glyph d="M94 708H334Q427 708 483 667T540 537Q540 473 503 430T410 376V374Q484 365 528 319T572 195Q572 94 507 47T340 0H94ZM160 656V395H315Q385 395 429 429T473 530Q473 656 320 656ZM160 345V53H324Q404 53 453 88T503 201Q503 272 456 308T329 345Z" horiz-adv-x="620" unicode="B"/>
			<glyph d="M401 725Q470 725 530 703T636 640L596 596Q556 630 507 648T402 667Q311 667 248 626T154 515T123 354Q123 264 154 194T247 84T401 44Q461 44 515 66T609 127L650 83Q604 36 539 10T400 -16Q290 -16 212 31T93 161T53 354Q53 464 93 548T212 678T401 725Z" horiz-adv-x="672" unicode="C"/>
			<glyph d="M94 708H312Q487 708 581 620T675 354Q675 180 580 90T314 0H94ZM162 652V56H306Q452 56 529 130T606 354Q606 652 307 652Z" horiz-adv-x="728" unicode="D"/>
			<glyph d="M94 708H515V653H161V392H471V339H161V56H532V0H94Z" horiz-adv-x="560" unicode="E"/>
			<glyph d="M94 708H516V652H162V388H478V333H162V0H94Z" horiz-adv-x="535" unicode="F"/>
			<glyph d="M407 724Q476 724 536 702T641 639L602 595Q562 629 513 647T409 666Q316 666 251 626T154 515T122 354Q122 211 193 125T404 40Q462 40 507 52T599 86V297H426V350H662V50Q603 19 542 1T404 -16Q291 -16 212 30T93 160T53 354Q53 464 94 547T216 677T407 724Z" horiz-adv-x="747" unicode="G"/>
			<glyph d="M94 708H162V393H572V708H640V0H572V337H162V0H94Z" horiz-adv-x="735" unicode="H"/>
			<glyph d="M57 708H294V657H209V52H294V0H57V52H142V657H57Z" horiz-adv-x="351" unicode="I"/>
			<glyph d="M261 708H328V197Q328 103 279 43T132 -16Q65 -16 7 16L32 66Q53 55 78 48T128 42Q196 42 228 84T261 197Z" horiz-adv-x="413" unicode="J"/>
			<glyph d="M94 708H162V369L488 708H569L258 385L591 0H508L214 339L162 286V0H94Z" horiz-adv-x="598" unicode="K"/>
			<glyph d="M94 708H162V57H495V0H94Z" horiz-adv-x="500" unicode="L"/>
			<glyph d="M94 708H196L456 91H458L719 708H821V0H755L756 630H754L482 0H431L159 630H157L158 0H94Z" horiz-adv-x="916" unicode="M"/>
			<glyph d="M94 708H173L616 91H618L617 708H680V0H601L159 617H157L158 0H94Z" horiz-adv-x="775" unicode="N"/>
			<glyph d="M404 724Q514 724 593 677T714 547T756 354Q756 244 714 160T593 30T404 -16Q294 -16 215 30T94 161T53 354Q53 463 94 547T215 677T404 724ZM404 666Q313 666 249 626T154 516T122 354Q122 262 154 191T249 81T404 42Q496 42 559 81T655 191T687 354Q687 446 655 516T559 626T404 666Z" horiz-adv-x="809" unicode="O"/>
			<glyph d="M94 708H325Q431 708 501 653T571 481Q571 407 537 355T447 277T327 252H162V0H94ZM162 653V308H322Q370 308 411 327T477 385T502 480Q502 571 449 612T319 653Z" horiz-adv-x="603" unicode="P"/>
			<glyph d="M404 724Q514 724 593 677T714 547T756 354Q756 252 719 171T613 42T445 -14Q465 -55 494 -79T573 -114T707 -126V-182Q605 -182 540 -163T437 -109T375 -15Q274 -9 201 39T91 168T53 354Q53 463 94 547T215 677T404 724ZM404 666Q313 666 249 626T154 516T122 354Q122 262 154 191T249 81T404 42Q496 42 559 81T655 191T687 354Q687 446 655 516T559 626T404 666Z" horiz-adv-x="809" unicode="Q"/>
			<glyph d="M94 708H320Q386 708 440 683T526 608T559 485Q559 399 512 347T391 277L574 0H497L326 268H162V0H94ZM162 653V321H318Q392 321 441 363T490 485Q490 569 440 611T317 653Z" horiz-adv-x="618" unicode="R"/>
			<glyph d="M287 723Q406 723 494 658L463 613Q423 641 381 654T287 668Q213 668 168 635T124 542Q124 485 163 456T290 403Q398 374 453 327T508 188Q508 123 476 77T390 7T267 -16Q129 -16 32 68L66 110Q111 74 159 57T267 41Q344 41 392 78T440 186Q440 234 418 264T356 314T255 349Q154 376 105 418T57 539Q57 625 121 674T287 723Z" horiz-adv-x="550" unicode="S"/>
			<glyph d="M5 708H531V650H301V0H234V650H5Z" horiz-adv-x="536" unicode="T"/>
			<glyph d="M85 708H153V258Q153 152 204 97T366 43Q478 43 529 97T581 258V708H648V253Q648 124 577 54T366 -16Q227 -16 156 54T85 253Z" horiz-adv-x="733" unicode="U"/>
			<glyph d="M6 708H79L311 73H314L545 708H616L347 0H274Z" horiz-adv-x="622" unicode="V"/>
			<glyph d="M18 708H88L264 85H267L446 708H521L704 85H706L885 708H952L743 0H669L484 625H481L300 0H226Z" horiz-adv-x="969" unicode="W"/>
			<glyph d="M38 708H117L303 418L490 708H566L342 373L343 372L591 0H512L301 324L92 0H13L261 372L262 373Z" horiz-adv-x="604" unicode="X"/>
			<glyph d="M-7 708H70L274 362H276L478 708H553L306 305V0H238V307Z" horiz-adv-x="546" unicode="Y"/>
			<glyph d="M50 708H528V650L116 57H539V0H38V60L450 653H50Z" horiz-adv-x="587" unicode="Z"/>
			<glyph d="M80 807H279V755H141V-61H279V-112H80Z" horiz-adv-x="359" unicode="["/>
			<glyph d="M125 784H182L404 -80H347Z" horiz-adv-x="530" unicode="\"/>
			<glyph d="M80 807H279V-112H80V-61H218V755H80Z" horiz-adv-x="359" unicode="]"/>
			<glyph d="M279 708H332L488 510L455 484L306 664L155 484L123 510Z" unicode="^"/>
			<glyph d="M56 -106H555V-159H56Z" unicode="_"/>
			<glyph d="M63 743L217 617L191 582L30 695Z" horiz-adv-x="247" unicode="`"/>
			<glyph d="M257 517Q358 517 405 469T453 323V111Q453 56 460 0H400Q395 31 393 77H391Q335 -15 206 -15Q132 -15 88 24T44 136Q44 233 114 270T334 308Q369 308 388 307V339Q388 466 254 466Q209 466 172 455T99 422L76 466Q154 517 257 517ZM340 261Q258 261 208 250T135 212T111 139Q111 90 140 63T221 37Q275 37 313 59T369 116T388 182V260Z" horiz-adv-x="535" unicode="a"/>
			<glyph d="M91 708H156V418H158Q183 465 230 491T340 517Q412 517 462 482T537 388T563 252Q563 176 535 115T454 20T326 -14Q224 -14 152 61L144 0H91ZM330 465Q278 465 238 441T177 376T156 289V118Q191 77 230 57T319 38Q404 38 450 98T497 252Q497 348 453 406T330 465Z" horiz-adv-x="616" unicode="b"/>
			<glyph d="M298 517Q345 517 388 503T464 463L437 418Q379 463 298 463Q210 463 164 405T118 252Q118 158 164 99T297 41Q371 41 437 86L462 41Q427 15 383 0T293 -14Q211 -14 157 23T78 120T53 252Q53 373 117 445T298 517Z" horiz-adv-x="500" unicode="c"/>
			<glyph d="M460 708H525V111Q525 64 531 0H471Q466 34 464 87H462Q407 -14 276 -14Q169 -14 111 59T53 251Q53 326 81 386T162 482T286 517Q343 517 385 497T460 442ZM294 465Q214 465 167 405T120 251Q120 155 165 96T289 38Q341 38 379 61T439 125T460 215V378Q428 421 387 443T294 465Z" horiz-adv-x="615" unicode="d"/>
			<glyph d="M285 517Q393 517 450 446T507 259Q507 250 505 230H118Q122 144 167 91T296 38Q344 38 381 51T457 90L486 48Q444 18 397 2T293 -14Q179 -14 116 59T53 255Q53 332 80 391T160 484T285 517ZM284 467Q206 467 163 414T118 280H443Q441 366 401 416T284 467Z" horiz-adv-x="559" unicode="e"/>
			<glyph d="M267 722Q310 722 348 711L334 664Q300 671 272 670Q172 669 172 557V503H301V453H172V0H107V453H15V495L107 503V559Q107 637 147 679T267 722Z" horiz-adv-x="317" unicode="f"/>
			<glyph d="M255 515Q282 515 300 512T341 503H513V451L395 460Q423 443 440 409T458 330Q458 248 405 202T254 157Q204 157 172 142T141 104Q141 60 239 59Q381 58 443 23T506 -81Q506 -165 436 -211T241 -258Q133 -258 77 -219T22 -108Q22 -64 47 -29T134 33Q81 55 81 99Q81 125 101 145T158 176Q107 192 79 232T51 336Q51 419 105 467T255 515ZM253 466Q187 466 149 431T111 337Q111 273 146 238T253 204Q397 204 397 335Q397 395 360 430T253 466ZM186 9Q131 -13 108 -40T85 -105Q85 -207 243 -207Q340 -207 391 -176T442 -87Q442 -53 419 -32T340 -1T186 9Z" horiz-adv-x="537" unicode="g"/>
			<glyph d="M91 708H156V421H158Q181 464 225 490T336 517Q432 517 477 461T523 322V0H458V310Q458 376 425 419T320 463Q271 463 233 440T176 379T156 293V0H91Z" horiz-adv-x="606" unicode="h"/>
			<glyph d="M91 503H156V0H91ZM123 728Q168 728 168 684Q168 640 123 640Q77 640 77 684Q77 728 123 728Z" horiz-adv-x="247" unicode="i"/>
			<glyph d="M91 503H156V-101Q156 -258 18 -258Q-9 -258 -30 -252L-18 -203Q-6 -206 10 -206Q54 -206 72 -180T91 -102ZM123 728Q168 728 168 684Q168 640 123 640Q77 640 77 684Q77 728 123 728Z" horiz-adv-x="247" unicode="j"/>
			<glyph d="M91 708H156V279L399 503H478L254 295L503 0H421L208 253L156 205V0H91Z" horiz-adv-x="505" unicode="k"/>
			<glyph d="M91 708H156V0H91Z" horiz-adv-x="247" unicode="l"/>
			<glyph d="M326 517Q456 517 492 401H494Q517 455 564 486T676 517Q767 517 813 461T859 323V0H794V315Q794 377 762 420T664 464Q615 464 579 438T524 369T505 277V0H441V313Q441 376 409 420T311 464Q264 464 228 441T174 379T155 293V0H90V393Q90 449 83 503H145Q151 467 151 420H153Q176 463 221 490T326 517Z" horiz-adv-x="942" unicode="m"/>
			<glyph d="M335 517Q430 517 476 461T522 322V0H457V310Q457 376 424 419T319 463Q270 463 232 440T175 379T155 293V0H90V393Q90 449 83 503H145Q151 467 151 419H153Q178 464 224 490T335 517Z" horiz-adv-x="605" unicode="n"/>
			<glyph d="M300 518Q418 518 483 446T549 253Q549 174 520 114T434 20T300 -14Q222 -14 166 20T82 114T53 253Q53 374 117 446T300 518ZM300 466Q210 466 165 407T120 253Q120 157 165 97T300 38Q391 38 436 97T482 253Q482 349 436 407T300 466Z" horiz-adv-x="602" unicode="o"/>
			<glyph d="M340 517Q412 517 462 482T537 388T563 252Q563 176 535 115T455 20T330 -14Q274 -14 232 4T155 58V-244H90V393Q90 449 83 503H145Q151 463 151 412H153Q178 462 226 489T340 517ZM329 465Q277 465 237 441T176 376T155 289V119Q191 77 229 57T318 38Q404 38 450 97T496 252Q496 348 452 406T329 465Z" horiz-adv-x="615" unicode="p"/>
			<glyph d="M285 517Q343 517 386 497T464 440L472 503H525V-244H460V82H458Q431 35 385 10T279 -14Q170 -14 111 60T53 252Q53 327 81 387T163 482T285 517ZM294 465Q214 465 167 405T120 252Q120 155 165 96T289 38Q340 38 379 61T439 125T460 215V378Q428 421 387 443T294 465Z" horiz-adv-x="616" unicode="q"/>
			<glyph d="M316 517Q331 517 343 515L340 459Q330 461 311 461Q236 461 195 409T155 274V0H90V393Q90 449 83 503H145Q151 463 151 414H153Q196 517 316 517Z" horiz-adv-x="350" unicode="r"/>
			<glyph d="M217 517Q313 517 380 465L351 423Q292 466 219 466Q167 466 137 445T107 387Q107 360 119 342T159 312T238 287Q317 268 354 232T391 138Q391 67 338 26T207 -14Q100 -14 27 45L57 86Q92 61 126 49T205 37Q259 37 291 63T324 134Q324 164 312 182T273 214T194 240Q113 260 77 293T42 383Q42 445 90 481T217 517Z" horiz-adv-x="434" unicode="s"/>
			<glyph d="M172 655V503H311V453H172V125Q172 39 251 39Q281 39 303 47L313 -2Q280 -14 240 -14Q178 -14 142 21T107 121V453H15V495L107 503V632Z" horiz-adv-x="343" unicode="t"/>
			<glyph d="M83 503H148V205Q148 131 181 84T284 38Q335 38 372 64T430 136T451 237V503H516V111Q516 64 522 0H460Q455 39 454 96H452Q426 43 380 14T270 -15Q177 -15 130 43T83 196Z" horiz-adv-x="605" unicode="u"/>
			<glyph d="M8 503H78L239 65H242L398 503H466L277 0H202Z" horiz-adv-x="474" unicode="v"/>
			<glyph d="M21 503H89L203 70H205L341 503H413L550 70H552L666 503H732L590 0H515L377 434H375L237 0H163Z" horiz-adv-x="753" unicode="w"/>
			<glyph d="M33 503H107L251 303L394 503H465L291 264L493 0H415L248 223L88 0H11L208 264Z" horiz-adv-x="504" unicode="x"/>
			<glyph d="M8 503H78L237 69H238L386 503H453L223 -135Q200 -199 165 -228T77 -258Q43 -258 15 -247L28 -198Q50 -204 69 -204Q107 -204 128 -182T165 -118L204 -3Z" horiz-adv-x="461" unicode="y"/>
			<glyph d="M49 503H391V452L111 52H402V0H35V53L314 453H49Z" horiz-adv-x="438" unicode="z"/>
			<glyph d="M304 807V754Q258 754 231 724T204 641V486Q204 420 182 391T106 348V346Q160 333 182 303T204 209V53Q204 -1 231 -30T304 -59V-112Q231 -112 185 -69T140 60V239Q140 278 120 296T55 319V376Q99 381 119 399T140 456V635Q140 722 187 764T304 807Z" horiz-adv-x="359" unicode="{"/>
			<glyph d="M140 808H201V-100H140Z" horiz-adv-x="341" unicode="|"/>
			<glyph d="M55 807Q125 807 172 764T219 635V456Q219 418 239 399T304 376V319Q259 314 239 296T219 239V60Q219 -27 173 -69T55 -112V-59Q101 -59 128 -30T155 53V209Q155 274 177 303T253 346V348Q199 362 177 391T155 486V641Q155 695 128 724T55 754Z" horiz-adv-x="359" unicode="}"/>
			<glyph d="M223 335Q246 335 267 327T314 305Q339 292 355 285T390 279Q416 279 435 291T481 333L512 313Q464 234 390 234Q366 234 344 242T298 264Q272 278 255 284T223 290Q199 290 177 278T129 236L99 256Q150 335 223 335Z" unicode="~"/>
			<glyph d="" horiz-adv-x="252" unicode=" "/>
			<glyph d="M156 517Q202 517 202 473Q202 427 156 427Q111 427 111 473Q111 517 156 517ZM129 299H183L189 127V-197H123V127Z" horiz-adv-x="312" unicode="¡"/>
			<glyph d="M317 708H370V619Q454 611 511 565L484 521Q425 565 345 565Q257 565 211 507T165 354Q165 260 211 201T344 143Q416 143 484 188L509 143Q447 97 370 90V0H317V89Q208 97 153 172T99 354Q99 468 156 539T317 619Z" unicode="¢"/>
			<glyph d="M332 723Q450 723 529 637L487 600Q455 634 419 650T332 667Q267 667 231 632T195 535Q195 494 206 462T240 384H429V333H263Q281 283 281 236Q281 120 161 61V59H522V0H78V54Q144 90 178 132T213 236Q213 285 194 333H79V384H170Q148 429 137 462T127 537Q127 620 181 671T332 723Z" unicode="£"/>
			<glyph d="M138 517L210 423Q252 444 305 444Q358 444 400 423L472 517L513 487L437 395Q483 349 483 272Q483 194 437 148L513 55L472 25L400 120Q358 99 305 99Q249 99 210 120L138 25L98 55L173 147Q127 195 127 272Q127 348 173 396L98 488ZM305 401Q242 401 211 367T180 272Q180 211 211 176T305 141Q368 141 399 176T431 272Q431 333 399 367T305 401Z" unicode="¤"/>
			<glyph d="M31 708H104L301 360H303L497 708H569L355 345H481V299H331V234H481V189H331V0H267V189H119V234H267V299H119V345H245Z" horiz-adv-x="600" unicode="¥"/>
			<glyph d="M140 808H201V427H140ZM140 281H201V-100H140Z" horiz-adv-x="341" unicode="¦"/>
			<glyph d="M313 724Q367 724 408 711T486 671L456 630Q425 652 392 662T315 673Q267 673 238 653T208 600Q208 567 235 546T336 503Q395 486 428 468T477 425T493 362Q493 278 390 240Q444 221 468 194T493 124Q493 57 440 21T303 -14Q245 -14 200 1T117 45L148 86Q185 61 220 49T303 37Q361 37 393 58T426 120Q426 144 414 159T375 186T292 214Q205 238 169 268T133 355Q133 397 162 429T241 478Q190 499 166 527T143 596Q143 655 190 689T313 724ZM300 458Q197 431 197 359Q197 332 209 314T250 284T331 258Q380 274 404 298T428 357Q428 385 416 401T379 430T300 458Z" unicode="§"/>
			<glyph d="M72 702Q114 702 114 660Q114 618 72 618Q30 618 30 660Q30 680 40 691T72 702ZM248 702Q290 702 290 660Q290 618 248 618Q206 618 206 660Q206 702 248 702Z" horiz-adv-x="320" unicode="¨"/>
			<glyph d="M471 724Q591 724 676 676T804 544T848 354Q848 247 804 163T676 32T471 -16Q351 -16 266 32T137 163T93 354Q93 461 137 544T266 676T471 724ZM471 679Q363 679 289 637T180 521T144 354Q144 260 180 186T289 71T471 29Q579 29 652 71T761 186T797 354Q797 448 761 521T652 637T471 679ZM480 570Q559 570 617 526L595 490Q541 525 480 525Q407 525 369 479T332 356Q332 280 369 233T479 187Q540 187 594 223L615 186Q587 165 551 153T476 142Q376 142 326 203T277 356Q277 453 331 511T480 570Z" horiz-adv-x="941" unicode="©"/>
			<glyph d="M276 723Q374 723 420 676T467 534V329Q467 283 473 221H415Q410 252 408 296H406Q352 206 227 206Q155 206 112 244T70 353Q70 447 138 483T350 520Q385 520 404 519V550Q404 673 273 673Q229 673 193 662T123 631L101 673Q177 723 276 723ZM356 474Q277 474 229 463T158 427T135 356Q135 308 163 282T241 257Q294 257 330 279T385 333T404 398V473ZM83 58H502V5H83Z" horiz-adv-x="573" unicode="ª"/>
			<glyph d="M213 486L244 460L135 318L243 176L213 151L83 303V332ZM375 486L406 460L297 318L405 176L375 151L245 303V332Z" horiz-adv-x="488" unicode="«"/>
			<glyph d="M105 370H505V178H444V317H105Z" unicode="¬"/>
			<glyph d="M46 318H265V265H46Z" horiz-adv-x="310" unicode="­"/>
			<glyph d="M173 722Q232 722 265 688T299 600Q299 546 265 512T173 478Q114 478 81 512T48 600Q48 654 81 688T173 722ZM174 700Q124 700 98 672T73 600Q73 555 98 527T174 500Q223 500 248 527T274 600Q274 645 248 672T174 700ZM128 671H176Q200 671 214 660T228 627Q228 597 198 586L232 535H204L173 583H153V535H128ZM153 651V602H172Q203 602 203 627Q203 651 172 651Z" horiz-adv-x="346" unicode="®"/>
			<glyph d="M30 661H291V614H30Z" horiz-adv-x="321" unicode="¯"/>
			<glyph d="M180 724Q239 724 275 690T311 599Q311 541 275 507T180 473Q120 473 84 507T49 599Q49 658 84 691T180 724ZM180 683Q141 683 120 661T99 599Q99 557 120 535T180 514Q218 514 239 535T261 599Q261 640 240 661T180 683Z" horiz-adv-x="360" unicode="°"/>
			<glyph d="M277 577H334V404H505V351H334V177H277V351H105V404H277ZM105 58H505V5H105Z" unicode="±"/>
			<glyph d="M267 719Q350 719 395 677T441 572Q441 520 418 478T343 386T175 244H458V191H91V241Q220 348 276 399T354 488T377 567Q377 612 346 639T262 667Q217 667 184 651T119 605L82 639Q121 680 163 699T267 719Z" horiz-adv-x="540" unicode="²"/>
			<glyph d="M273 720Q354 720 400 682T446 584Q446 530 418 501T348 464V462Q396 457 429 426T463 337Q463 266 410 222T265 179Q202 179 158 196T77 250L111 287Q145 257 180 244T265 232Q327 232 362 260T398 339Q398 388 366 411T282 435H197V486H271Q322 486 352 509T383 577Q383 621 353 644T267 667Q225 667 191 655T125 619L93 655Q131 688 174 704T273 720Z" horiz-adv-x="540" unicode="³"/>
			<glyph d="M184 743L217 695L56 582L30 617Z" horiz-adv-x="247" unicode="´"/>
			<glyph d="M88 503H154V205Q154 131 187 85T289 39Q340 39 377 65T435 137T456 238V503H521V111Q521 64 527 0H466Q461 35 459 96H457Q432 44 388 14T285 -15Q233 -15 202 6T152 61H150V-133Q150 -202 142 -244H82Q88 -180 88 -133Z" unicode="µ"/>
			<glyph d="M246 708H357V-130H293V340H241Q147 340 90 388T34 524Q34 612 91 660T246 708ZM470 708H534V-130H470ZM241 655Q171 655 132 622T94 524Q94 458 132 425T241 393H293V655Z" horiz-adv-x="629" unicode="¶"/>
			<glyph d="M129 378Q175 378 175 332Q175 288 129 288Q84 288 84 332Q84 378 129 378Z" horiz-adv-x="258" unicode="·"/>
			<glyph d="M108 0H153L127 -71Q138 -68 159 -68Q195 -68 218 -88T241 -144Q241 -189 209 -212T127 -236Q72 -236 30 -212L47 -176Q81 -194 126 -194Q157 -194 174 -181T191 -145Q191 -124 178 -113T142 -102Q126 -102 100 -108H66Z" horiz-adv-x="271" unicode="¸"/>
			<glyph d="M272 708H328V244H444V191H121V243H265V642L121 570L96 616Z" horiz-adv-x="540" unicode="¹"/>
			<glyph d="M308 724Q422 724 486 654T550 467Q550 391 521 332T438 240T308 207Q233 207 178 240T96 332T68 467Q68 584 131 654T308 724ZM308 673Q221 673 177 616T133 467Q133 374 177 316T308 258Q396 258 440 315T485 467Q485 560 440 616T308 673ZM109 58H528V5H109Z" horiz-adv-x="626" unicode="º"/>
			<glyph d="M114 486L244 332V303L114 151L83 176L191 318L83 460ZM276 486L406 332V303L276 151L245 176L353 318L245 460Z" horiz-adv-x="488" unicode="»"/>
			<glyph d="M227 708H283V244H399V191H76V243H220V642L76 570L51 616ZM786 709H848L430 0H368ZM918 517H985L807 180H1007V325H1068V180H1149V126H1068V0H1007V126H737V174Z" horiz-adv-x="1200" unicode="¼"/>
			<glyph d="M221 708H277V244H393V191H70V243H214V642L70 570L45 616ZM779 709H841L423 0H361ZM964 528Q1047 528 1092 486T1138 381Q1138 329 1115 287T1040 195T872 53H1155V0H788V50Q917 157 973 208T1051 297T1074 376Q1074 421 1043 448T959 476Q914 476 881 460T816 414L779 448Q818 489 860 508T964 528Z" horiz-adv-x="1200" unicode="½"/>
			<glyph d="M238 720Q319 720 365 682T411 584Q411 530 383 501T313 464V462Q361 457 394 426T428 337Q428 266 375 222T230 179Q167 179 123 196T42 250L76 287Q110 257 145 244T230 232Q292 232 327 260T363 339Q363 388 331 411T247 435H162V486H236Q287 486 317 509T348 577Q348 621 318 644T232 667Q190 667 156 655T90 619L58 655Q96 688 139 704T238 720ZM795 709H857L439 0H377ZM927 517H994L816 180H1016V325H1077V180H1158V126H1077V0H1016V126H746V174Z" horiz-adv-x="1200" unicode="¾"/>
			<glyph d="M278 517Q323 517 323 473Q323 427 278 427Q232 427 232 473Q232 517 278 517ZM247 299H308V262Q308 220 285 191T215 126Q165 87 139 54T114 -28Q114 -86 151 -121T254 -157Q314 -157 355 -134T434 -70L476 -106Q431 -157 377 -184T250 -212Q188 -212 141 -188T70 -123T45 -30Q45 14 62 48T102 105T164 158Q206 191 226 214T247 270Z" horiz-adv-x="491" unicode="¿"/>
			<glyph d="M291 708H364L646 0H573L503 182H150L79 0H8ZM327 646L170 235H483ZM248 922L414 815L391 779L219 873Z" horiz-adv-x="654" unicode="À"/>
			<glyph d="M291 708H364L646 0H573L503 182H150L79 0H8ZM327 646L170 235H483ZM405 922L434 873L261 779L239 815Z" horiz-adv-x="654" unicode="Á"/>
			<glyph d="M291 708H364L646 0H573L503 182H150L79 0H8ZM327 646L170 235H483ZM301 909H354L477 811L452 781L327 867L203 780L178 811Z" horiz-adv-x="654" unicode="Â"/>
			<glyph d="M291 708H364L646 0H573L503 182H150L79 0H8ZM327 646L170 235H483ZM271 880Q286 880 301 873T334 854Q352 842 361 837T381 832Q398 832 412 842T440 878L475 863Q442 787 382 787Q367 787 353 793T317 814Q303 824 292 829T272 834Q255 834 241 823T213 789L178 804Q213 880 271 880Z" horiz-adv-x="654" unicode="Ã"/>
			<glyph d="M291 708H364L646 0H573L503 182H150L79 0H8ZM327 646L170 235H483ZM241 897Q283 897 283 855Q283 813 241 813Q199 813 199 855Q199 874 209 885T241 897ZM417 897Q459 897 459 855Q459 813 417 813Q375 813 375 855Q375 897 417 897Z" horiz-adv-x="654" unicode="Ä"/>
			<glyph d="M327 871Q373 871 402 843T432 772Q432 741 416 717T374 682L646 0H573L503 182H150L79 0H8L281 682Q253 693 238 717T223 772Q223 816 252 843T327 871ZM327 833Q300 833 284 816T268 772Q268 744 284 727T327 711Q354 711 370 727T386 772Q386 800 370 816T327 833ZM327 646L170 235H483Z" horiz-adv-x="654" unicode="Å"/>
			<glyph d="M291 708H815V653H383L474 392H782V339H492L591 56H870V0H540L480 182H150L79 0H8ZM327 646L170 235H463Z" horiz-adv-x="890" unicode="Æ"/>
			<glyph d="M401 725Q470 725 530 703T636 640L596 596Q556 630 507 648T402 667Q311 667 248 626T154 515T123 354Q123 264 154 194T247 84T401 44Q461 44 515 66T609 127L650 83Q607 39 548 13T421 -15L401 -71Q412 -68 433 -68Q469 -68 492 -88T515 -144Q515 -189 482 -212T401 -236Q346 -236 304 -212L321 -176Q357 -194 400 -194Q431 -194 448 -181T465 -145Q465 -124 452 -113T416 -102Q400 -102 374 -108H340L376 -15Q273 -10 200 38T90 167T53 354Q53 464 93 548T212 678T401 725Z" horiz-adv-x="672" unicode="Ç"/>
			<glyph d="M94 708H515V653H161V392H471V339H161V56H532V0H94ZM240 922L406 815L383 779L211 873Z" horiz-adv-x="560" unicode="È"/>
			<glyph d="M94 708H515V653H161V392H471V339H161V56H532V0H94ZM397 922L426 873L253 779L231 815Z" horiz-adv-x="560" unicode="É"/>
			<glyph d="M94 708H515V653H161V392H471V339H161V56H532V0H94ZM293 909H346L469 811L444 781L319 867L195 780L170 811Z" horiz-adv-x="560" unicode="Ê"/>
			<glyph d="M94 708H515V653H161V392H471V339H161V56H532V0H94ZM233 897Q275 897 275 855Q275 813 233 813Q191 813 191 855Q191 874 201 885T233 897ZM409 897Q451 897 451 855Q451 813 409 813Q367 813 367 855Q367 897 409 897Z" horiz-adv-x="560" unicode="Ë"/>
			<glyph d="M57 708H294V657H209V52H294V0H57V52H142V657H57ZM97 922L263 815L240 779L68 873Z" horiz-adv-x="351" unicode="Ì"/>
			<glyph d="M57 708H294V657H209V52H294V0H57V52H142V657H57ZM254 922L283 873L110 779L88 815Z" horiz-adv-x="351" unicode="Í"/>
			<glyph d="M57 708H294V657H209V52H294V0H57V52H142V657H57ZM150 909H203L326 811L301 781L176 867L52 780L27 811Z" horiz-adv-x="351" unicode="Î"/>
			<glyph d="M57 708H294V657H209V52H294V0H57V52H142V657H57ZM90 897Q132 897 132 855Q132 813 90 813Q48 813 48 855Q48 874 58 885T90 897ZM266 897Q308 897 308 855Q308 813 266 813Q224 813 224 855Q224 897 266 897Z" horiz-adv-x="351" unicode="Ï"/>
			<glyph d="M94 708H312Q487 708 581 620T675 354Q675 180 580 90T314 0H94V330H12V377H94ZM162 652V377H325V330H162V56H306Q452 56 529 130T606 354Q606 652 307 652Z" horiz-adv-x="728" unicode="Ð"/>
			<glyph d="M94 708H173L616 91H618L617 708H680V0H601L159 617H157L158 0H94ZM331 880Q346 880 361 873T394 854Q412 842 421 837T441 832Q458 832 472 842T500 878L535 863Q502 787 442 787Q427 787 413 793T377 814Q363 824 352 829T332 834Q315 834 301 823T273 789L238 804Q273 880 331 880Z" horiz-adv-x="775" unicode="Ñ"/>
			<glyph d="M404 724Q514 724 593 677T714 547T756 354Q756 244 714 160T593 30T404 -16Q294 -16 215 30T94 161T53 354Q53 463 94 547T215 677T404 724ZM404 666Q313 666 249 626T154 516T122 354Q122 262 154 191T249 81T404 42Q496 42 559 81T655 191T687 354Q687 446 655 516T559 626T404 666ZM325 922L491 815L468 779L296 873Z" horiz-adv-x="809" unicode="Ò"/>
			<glyph d="M404 724Q514 724 593 677T714 547T756 354Q756 244 714 160T593 30T404 -16Q294 -16 215 30T94 161T53 354Q53 463 94 547T215 677T404 724ZM404 666Q313 666 249 626T154 516T122 354Q122 262 154 191T249 81T404 42Q496 42 559 81T655 191T687 354Q687 446 655 516T559 626T404 666ZM482 922L511 873L338 779L316 815Z" horiz-adv-x="809" unicode="Ó"/>
			<glyph d="M404 724Q514 724 593 677T714 547T756 354Q756 244 714 160T593 30T404 -16Q294 -16 215 30T94 161T53 354Q53 463 94 547T215 677T404 724ZM404 666Q313 666 249 626T154 516T122 354Q122 262 154 191T249 81T404 42Q496 42 559 81T655 191T687 354Q687 446 655 516T559 626T404 666ZM378 909H431L554 811L529 781L404 867L280 780L255 811Z" horiz-adv-x="809" unicode="Ô"/>
			<glyph d="M404 724Q514 724 593 677T714 547T756 354Q756 244 714 160T593 30T404 -16Q294 -16 215 30T94 161T53 354Q53 463 94 547T215 677T404 724ZM404 666Q313 666 249 626T154 516T122 354Q122 262 154 191T249 81T404 42Q496 42 559 81T655 191T687 354Q687 446 655 516T559 626T404 666ZM348 880Q363 880 378 873T411 854Q429 842 438 837T458 832Q475 832 489 842T517 878L552 863Q519 787 459 787Q444 787 430 793T394 814Q380 824 369 829T349 834Q332 834 318 823T290 789L255 804Q290 880 348 880Z" horiz-adv-x="809" unicode="Õ"/>
			<glyph d="M404 724Q514 724 593 677T714 547T756 354Q756 244 714 160T593 30T404 -16Q294 -16 215 30T94 161T53 354Q53 463 94 547T215 677T404 724ZM404 666Q313 666 249 626T154 516T122 354Q122 262 154 191T249 81T404 42Q496 42 559 81T655 191T687 354Q687 446 655 516T559 626T404 666ZM318 897Q360 897 360 855Q360 813 318 813Q276 813 276 855Q276 874 286 885T318 897ZM494 897Q536 897 536 855Q536 813 494 813Q452 813 452 855Q452 897 494 897Z" horiz-adv-x="809" unicode="Ö"/>
			<glyph d="M182 446L306 323L428 445L465 408L343 286L465 163L428 125L305 248L182 125L145 162L268 285L145 408Z" unicode="×"/>
			<glyph d="M487 790L545 778L525 707Q636 674 696 580T756 354Q756 244 714 160T593 30T404 -16Q368 -16 340 -12L322 -86L265 -74L285 0Q174 33 113 127T53 354Q53 463 94 547T215 677T404 724Q435 724 470 719ZM404 666Q313 666 249 626T154 516T122 354Q122 240 168 162T303 56L459 662Q436 666 404 666ZM507 651L352 46Q373 42 404 42Q496 42 559 81T655 191T687 354Q687 468 641 545T507 651Z" horiz-adv-x="809" unicode="Ø"/>
			<glyph d="M85 708H153V258Q153 152 204 97T366 43Q478 43 529 97T581 258V708H648V253Q648 124 577 54T366 -16Q227 -16 156 54T85 253ZM288 922L454 815L431 779L259 873Z" horiz-adv-x="733" unicode="Ù"/>
			<glyph d="M85 708H153V258Q153 152 204 97T366 43Q478 43 529 97T581 258V708H648V253Q648 124 577 54T366 -16Q227 -16 156 54T85 253ZM445 922L474 873L301 779L279 815Z" horiz-adv-x="733" unicode="Ú"/>
			<glyph d="M85 708H153V258Q153 152 204 97T366 43Q478 43 529 97T581 258V708H648V253Q648 124 577 54T366 -16Q227 -16 156 54T85 253ZM341 909H394L517 811L492 781L367 867L243 780L218 811Z" horiz-adv-x="733" unicode="Û"/>
			<glyph d="M85 708H153V258Q153 152 204 97T366 43Q478 43 529 97T581 258V708H648V253Q648 124 577 54T366 -16Q227 -16 156 54T85 253ZM281 897Q323 897 323 855Q323 813 281 813Q239 813 239 855Q239 874 249 885T281 897ZM457 897Q499 897 499 855Q499 813 457 813Q415 813 415 855Q415 897 457 897Z" horiz-adv-x="733" unicode="Ü"/>
			<glyph d="M-7 708H70L274 362H276L478 708H553L306 305V0H238V307ZM351 922L380 873L207 779L185 815Z" horiz-adv-x="546" unicode="Ý"/>
			<glyph d="M94 708H162V593H325Q431 593 501 539T571 371Q571 299 537 248T447 172T327 147H162V0H94ZM162 538V202H322Q370 202 411 221T477 278T502 370Q502 458 449 498T319 538Z" horiz-adv-x="608" unicode="Þ"/>
			<glyph d="M286 722Q385 722 478 648L386 415Q464 396 516 345T569 200Q569 132 538 83T457 10T352 -14Q284 -14 234 11L254 57Q297 39 348 39Q415 39 459 82T504 201Q504 280 458 320T328 376V418L410 630Q354 672 287 672Q172 672 172 556V0H107V453H15V495L107 503V557Q107 637 152 679T286 722Z" horiz-adv-x="604" unicode="ß"/>
			<glyph d="M257 517Q358 517 405 469T453 323V111Q453 56 460 0H400Q395 31 393 77H391Q335 -15 206 -15Q132 -15 88 24T44 136Q44 233 114 270T334 308Q369 308 388 307V339Q388 466 254 466Q209 466 172 455T99 422L76 466Q154 517 257 517ZM340 261Q258 261 208 250T135 212T111 139Q111 90 140 63T221 37Q275 37 313 59T369 116T388 182V260ZM195 743L349 617L323 582L162 695Z" horiz-adv-x="535" unicode="à"/>
			<glyph d="M257 517Q358 517 405 469T453 323V111Q453 56 460 0H400Q395 31 393 77H391Q335 -15 206 -15Q132 -15 88 24T44 136Q44 233 114 270T334 308Q369 308 388 307V339Q388 466 254 466Q209 466 172 455T99 422L76 466Q154 517 257 517ZM340 261Q258 261 208 250T135 212T111 139Q111 90 140 63T221 37Q275 37 313 59T369 116T388 182V260ZM338 743L371 695L210 582L184 617Z" horiz-adv-x="535" unicode="á"/>
			<glyph d="M257 517Q358 517 405 469T453 323V111Q453 56 460 0H400Q395 31 393 77H391Q335 -15 206 -15Q132 -15 88 24T44 136Q44 233 114 270T334 308Q369 308 388 307V339Q388 466 254 466Q209 466 172 455T99 422L76 466Q154 517 257 517ZM340 261Q258 261 208 250T135 212T111 139Q111 90 140 63T221 37Q275 37 313 59T369 116T388 182V260ZM239 731H292L417 611L390 582L266 687L141 582L114 611Z" horiz-adv-x="535" unicode="â"/>
			<glyph d="M257 517Q358 517 405 469T453 323V111Q453 56 460 0H400Q395 31 393 77H391Q335 -15 206 -15Q132 -15 88 24T44 136Q44 233 114 270T334 308Q369 308 388 307V339Q388 466 254 466Q209 466 172 455T99 422L76 466Q154 517 257 517ZM340 261Q258 261 208 250T135 212T111 139Q111 90 140 63T221 37Q275 37 313 59T369 116T388 182V260ZM211 685Q227 685 242 678T274 659T301 642T321 637Q338 637 352 647T380 683L415 668Q382 592 322 592Q308 592 293 598T259 618Q243 629 232 634T212 639Q195 639 181 628T153 594L118 609Q153 685 211 685Z" horiz-adv-x="535" unicode="ã"/>
			<glyph d="M257 517Q358 517 405 469T453 323V111Q453 56 460 0H400Q395 31 393 77H391Q335 -15 206 -15Q132 -15 88 24T44 136Q44 233 114 270T334 308Q369 308 388 307V339Q388 466 254 466Q209 466 172 455T99 422L76 466Q154 517 257 517ZM340 261Q258 261 208 250T135 212T111 139Q111 90 140 63T221 37Q275 37 313 59T369 116T388 182V260ZM178 702Q220 702 220 660Q220 618 178 618Q136 618 136 660Q136 680 146 691T178 702ZM354 702Q396 702 396 660Q396 618 354 618Q312 618 312 660Q312 702 354 702Z" horiz-adv-x="535" unicode="ä"/>
			<glyph d="M257 517Q358 517 405 469T453 323V111Q453 56 460 0H400Q395 31 393 77H391Q335 -15 206 -15Q132 -15 88 24T44 136Q44 233 114 270T334 308Q369 308 388 307V339Q388 466 254 466Q209 466 172 455T99 422L76 466Q154 517 257 517ZM340 261Q258 261 208 250T135 212T111 139Q111 90 140 63T221 37Q275 37 313 59T369 116T388 182V260ZM266 776Q312 776 341 748T371 677Q371 634 342 606T266 578Q219 578 190 606T162 677Q162 721 191 748T266 776ZM266 738Q239 738 223 721T207 677Q207 649 223 632T266 616Q293 616 309 632T325 677Q325 705 309 721T266 738Z" horiz-adv-x="535" unicode="å"/>
			<glyph d="M256 517Q321 517 360 490T417 405Q443 460 491 488T598 517Q698 517 753 445T809 260Q809 240 808 230H438Q441 145 486 91T609 38Q651 38 686 51T759 90L789 48Q703 -14 606 -14Q536 -14 483 20T406 112Q380 49 332 17T221 -15Q139 -15 91 24T44 136Q44 232 113 270T322 308Q356 308 373 307V339Q373 466 253 466Q209 466 172 455T99 422L76 466Q156 517 256 517ZM597 467Q523 467 481 413T438 280H746Q745 365 705 416T597 467ZM329 261Q214 261 162 234T111 139Q111 90 141 63T227 37Q273 37 306 59T356 116T373 182V260Z" horiz-adv-x="861" unicode="æ"/>
			<glyph d="M298 517Q345 517 388 503T464 463L437 418Q379 463 298 463Q210 463 164 405T118 252Q118 158 164 99T297 41Q371 41 437 86L462 41Q393 -10 307 -14L286 -71Q297 -68 318 -68Q354 -68 377 -88T400 -144Q400 -189 367 -212T286 -236Q231 -236 189 -212L206 -176Q242 -194 285 -194Q316 -194 333 -181T350 -145Q350 -124 337 -113T301 -102Q285 -102 259 -108H225L262 -13Q157 -2 105 72T53 252Q53 373 117 445T298 517Z" horiz-adv-x="500" unicode="ç"/>
			<glyph d="M285 517Q393 517 450 446T507 259Q507 250 505 230H118Q122 144 167 91T296 38Q344 38 381 51T457 90L486 48Q444 18 397 2T293 -14Q179 -14 116 59T53 255Q53 332 80 391T160 484T285 517ZM284 467Q206 467 163 414T118 280H443Q441 366 401 416T284 467ZM218 743L372 617L346 582L185 695Z" horiz-adv-x="559" unicode="è"/>
			<glyph d="M285 517Q393 517 450 446T507 259Q507 250 505 230H118Q122 144 167 91T296 38Q344 38 381 51T457 90L486 48Q444 18 397 2T293 -14Q179 -14 116 59T53 255Q53 332 80 391T160 484T285 517ZM284 467Q206 467 163 414T118 280H443Q441 366 401 416T284 467ZM361 743L394 695L233 582L207 617Z" horiz-adv-x="559" unicode="é"/>
			<glyph d="M285 517Q393 517 450 446T507 259Q507 250 505 230H118Q122 144 167 91T296 38Q344 38 381 51T457 90L486 48Q444 18 397 2T293 -14Q179 -14 116 59T53 255Q53 332 80 391T160 484T285 517ZM284 467Q206 467 163 414T118 280H443Q441 366 401 416T284 467ZM262 731H315L440 611L413 582L289 687L164 582L137 611Z" horiz-adv-x="559" unicode="ê"/>
			<glyph d="M285 517Q393 517 450 446T507 259Q507 250 505 230H118Q122 144 167 91T296 38Q344 38 381 51T457 90L486 48Q444 18 397 2T293 -14Q179 -14 116 59T53 255Q53 332 80 391T160 484T285 517ZM284 467Q206 467 163 414T118 280H443Q441 366 401 416T284 467ZM201 702Q243 702 243 660Q243 618 201 618Q159 618 159 660Q159 680 169 691T201 702ZM377 702Q419 702 419 660Q419 618 377 618Q335 618 335 660Q335 702 377 702Z" horiz-adv-x="559" unicode="ë"/>
			<glyph d="M91 503H156V0H91ZM52 743L206 617L180 582L19 695Z" horiz-adv-x="247" unicode="ì"/>
			<glyph d="M91 503H156V0H91ZM195 743L228 695L67 582L41 617Z" horiz-adv-x="247" unicode="í"/>
			<glyph d="M91 503H156V0H91ZM96 731H149L274 611L247 582L123 687L-2 582L-29 611Z" horiz-adv-x="247" unicode="î"/>
			<glyph d="M91 503H156V0H91ZM35 702Q77 702 77 660Q77 618 35 618Q-7 618 -7 660Q-7 680 3 691T35 702ZM211 702Q253 702 253 660Q253 618 211 618Q169 618 169 660Q169 702 211 702Z" horiz-adv-x="247" unicode="ï"/>
			<glyph d="M228 724Q298 701 346 676L436 724L457 687L389 651Q561 544 561 319Q561 170 497 78T305 -14Q227 -14 170 16T83 103T53 234Q53 312 83 370T167 459T294 491Q359 491 407 466T494 391Q477 540 336 624L235 571L215 607L291 647Q256 665 203 681ZM298 439Q215 439 167 384T120 232Q120 142 168 92T304 42Q404 42 449 117T494 310V324Q454 380 407 409T298 439Z" horiz-adv-x="619" unicode="ð"/>
			<glyph d="M335 517Q430 517 476 461T522 322V0H457V310Q457 376 424 419T319 463Q270 463 232 440T175 379T155 293V0H90V393Q90 449 83 503H145Q151 467 151 419H153Q178 464 224 490T335 517ZM256 685Q272 685 287 678T319 659T346 642T366 637Q383 637 397 647T425 683L460 668Q427 592 367 592Q353 592 338 598T304 618Q288 629 277 634T257 639Q240 639 226 628T198 594L163 609Q198 685 256 685Z" horiz-adv-x="605" unicode="ñ"/>
			<glyph d="M300 518Q418 518 483 446T549 253Q549 174 520 114T434 20T300 -14Q222 -14 166 20T82 114T53 253Q53 374 117 446T300 518ZM300 466Q210 466 165 407T120 253Q120 157 165 97T300 38Q391 38 436 97T482 253Q482 349 436 407T300 466ZM230 743L384 617L358 582L197 695Z" horiz-adv-x="602" unicode="ò"/>
			<glyph d="M300 518Q418 518 483 446T549 253Q549 174 520 114T434 20T300 -14Q222 -14 166 20T82 114T53 253Q53 374 117 446T300 518ZM300 466Q210 466 165 407T120 253Q120 157 165 97T300 38Q391 38 436 97T482 253Q482 349 436 407T300 466ZM373 743L406 695L245 582L219 617Z" horiz-adv-x="602" unicode="ó"/>
			<glyph d="M300 518Q418 518 483 446T549 253Q549 174 520 114T434 20T300 -14Q222 -14 166 20T82 114T53 253Q53 374 117 446T300 518ZM300 466Q210 466 165 407T120 253Q120 157 165 97T300 38Q391 38 436 97T482 253Q482 349 436 407T300 466ZM274 731H327L452 611L425 582L301 687L176 582L149 611Z" horiz-adv-x="602" unicode="ô"/>
			<glyph d="M300 518Q418 518 483 446T549 253Q549 174 520 114T434 20T300 -14Q222 -14 166 20T82 114T53 253Q53 374 117 446T300 518ZM300 466Q210 466 165 407T120 253Q120 157 165 97T300 38Q391 38 436 97T482 253Q482 349 436 407T300 466ZM246 685Q262 685 277 678T309 659T336 642T356 637Q373 637 387 647T415 683L450 668Q417 592 357 592Q343 592 328 598T294 618Q278 629 267 634T247 639Q230 639 216 628T188 594L153 609Q188 685 246 685Z" horiz-adv-x="602" unicode="õ"/>
			<glyph d="M300 518Q418 518 483 446T549 253Q549 174 520 114T434 20T300 -14Q222 -14 166 20T82 114T53 253Q53 374 117 446T300 518ZM300 466Q210 466 165 407T120 253Q120 157 165 97T300 38Q391 38 436 97T482 253Q482 349 436 407T300 466ZM213 702Q255 702 255 660Q255 618 213 618Q171 618 171 660Q171 680 181 691T213 702ZM389 702Q431 702 431 660Q431 618 389 618Q347 618 347 660Q347 702 389 702Z" horiz-adv-x="602" unicode="ö"/>
			<glyph d="M305 538Q328 538 339 525T350 493Q350 474 339 462T305 450Q261 450 261 493Q261 538 305 538ZM105 318H505V265H105ZM305 124Q328 124 339 111T350 79Q350 60 339 48T305 36Q261 36 261 79Q261 124 305 124Z" unicode="÷"/>
			<glyph d="M359 589L415 577L394 503Q469 478 509 412T549 253Q549 174 520 114T434 20T300 -14Q287 -14 261 -12L243 -86L187 -74L208 1Q133 27 93 93T53 253Q53 374 117 446T300 518Q316 518 340 516ZM300 467Q209 467 164 408T119 253Q119 177 146 124T226 50L333 465Q311 467 300 467ZM377 454L269 39Q289 37 300 37Q391 37 437 96T483 253Q483 329 456 381T377 454Z" horiz-adv-x="602" unicode="ø"/>
			<glyph d="M83 503H148V205Q148 131 181 84T284 38Q335 38 372 64T430 136T451 237V503H516V111Q516 64 522 0H460Q455 39 454 96H452Q426 43 380 14T270 -15Q177 -15 130 43T83 196ZM235 743L389 617L363 582L202 695Z" horiz-adv-x="605" unicode="ù"/>
			<glyph d="M83 503H148V205Q148 131 181 84T284 38Q335 38 372 64T430 136T451 237V503H516V111Q516 64 522 0H460Q455 39 454 96H452Q426 43 380 14T270 -15Q177 -15 130 43T83 196ZM378 743L411 695L250 582L224 617Z" horiz-adv-x="605" unicode="ú"/>
			<glyph d="M83 503H148V205Q148 131 181 84T284 38Q335 38 372 64T430 136T451 237V503H516V111Q516 64 522 0H460Q455 39 454 96H452Q426 43 380 14T270 -15Q177 -15 130 43T83 196ZM279 731H332L457 611L430 582L306 687L181 582L154 611Z" horiz-adv-x="605" unicode="û"/>
			<glyph d="M83 503H148V205Q148 131 181 84T284 38Q335 38 372 64T430 136T451 237V503H516V111Q516 64 522 0H460Q455 39 454 96H452Q426 43 380 14T270 -15Q177 -15 130 43T83 196ZM218 702Q260 702 260 660Q260 618 218 618Q176 618 176 660Q176 680 186 691T218 702ZM394 702Q436 702 436 660Q436 618 394 618Q352 618 352 660Q352 702 394 702Z" horiz-adv-x="605" unicode="ü"/>
			<glyph d="M8 503H78L237 69H238L386 503H453L223 -135Q200 -199 165 -228T77 -258Q43 -258 15 -247L28 -198Q50 -204 69 -204Q107 -204 128 -182T165 -118L204 -3ZM303 743L336 695L175 582L149 617Z" horiz-adv-x="461" unicode="ý"/>
			<glyph d="M91 708H156V417H158Q181 463 228 490T341 517Q413 517 463 482T538 388T564 252Q564 176 536 115T456 20T331 -14Q275 -14 233 4T156 58V-244H91ZM330 465Q278 465 238 440T177 375T156 284V119Q192 77 230 57T319 38Q405 38 451 97T497 252Q497 348 453 406T330 465Z" horiz-adv-x="616" unicode="þ"/>
			<glyph d="M8 503H78L237 69H238L386 503H453L223 -135Q200 -199 165 -228T77 -258Q43 -258 15 -247L28 -198Q50 -204 69 -204Q107 -204 128 -182T165 -118L204 -3ZM143 702Q185 702 185 660Q185 618 143 618Q101 618 101 660Q101 680 111 691T143 702ZM319 702Q361 702 361 660Q361 618 319 618Q277 618 277 660Q277 702 319 702Z" horiz-adv-x="461" unicode="ÿ"/>
			<glyph d="M291 708H364L646 0H573L503 182H150L79 0H8ZM327 646L170 235H483ZM198 856H459V809H198Z" horiz-adv-x="654" unicode="Ā"/>
			<glyph d="M257 517Q358 517 405 469T453 323V111Q453 56 460 0H400Q395 31 393 77H391Q335 -15 206 -15Q132 -15 88 24T44 136Q44 233 114 270T334 308Q369 308 388 307V339Q388 466 254 466Q209 466 172 455T99 422L76 466Q154 517 257 517ZM340 261Q258 261 208 250T135 212T111 139Q111 90 140 63T221 37Q275 37 313 59T369 116T388 182V260ZM135 661H396V614H135Z" horiz-adv-x="535" unicode="ā"/>
			<glyph d="M291 708H364L646 0H573L503 182H150L79 0H8ZM327 646L170 235H483ZM230 895Q241 860 265 841T327 823Q364 823 389 841T424 895L465 890Q454 836 418 806T327 776Q271 776 235 806T190 890Z" horiz-adv-x="654" unicode="Ă"/>
			<glyph d="M257 517Q358 517 405 469T453 323V111Q453 56 460 0H400Q395 31 393 77H391Q335 -15 206 -15Q132 -15 88 24T44 136Q44 233 114 270T334 308Q369 308 388 307V339Q388 466 254 466Q209 466 172 455T99 422L76 466Q154 517 257 517ZM340 261Q258 261 208 250T135 212T111 139Q111 90 140 63T221 37Q275 37 313 59T369 116T388 182V260ZM167 715Q188 628 266 628Q344 628 364 715L405 710Q395 645 359 612T266 580Q208 580 172 613T126 710Z" horiz-adv-x="535" unicode="ă"/>
			<glyph d="M291 708H364L646 0H625Q571 -38 546 -70T522 -136Q522 -162 537 -175T579 -189Q612 -189 645 -171L660 -209Q620 -234 572 -234Q528 -234 499 -210T471 -144Q471 -64 572 3L503 182H150L79 0H8ZM327 646L170 235H483Z" horiz-adv-x="654" unicode="Ą"/>
			<glyph d="M257 517Q358 517 405 469T453 323V111Q453 56 460 0H448Q394 -38 369 -70T345 -136Q345 -162 360 -175T402 -189Q435 -189 468 -171L483 -209Q443 -234 395 -234Q351 -234 322 -210T294 -144Q294 -63 399 6Q395 40 393 77H391Q335 -15 206 -15Q132 -15 88 24T44 136Q44 233 114 270T334 308Q369 308 388 307V339Q388 466 254 466Q209 466 172 455T99 422L76 466Q154 517 257 517ZM340 261Q258 261 208 250T135 212T111 139Q111 90 140 63T221 37Q275 37 313 59T369 116T388 182V260Z" horiz-adv-x="535" unicode="ą"/>
			<glyph d="M401 725Q470 725 530 703T636 640L596 596Q556 630 507 648T402 667Q311 667 248 626T154 515T123 354Q123 264 154 194T247 84T401 44Q461 44 515 66T609 127L650 83Q604 36 539 10T400 -16Q290 -16 212 31T93 161T53 354Q53 464 93 548T212 678T401 725ZM471 922L500 873L327 779L305 815Z" horiz-adv-x="672" unicode="Ć"/>
			<glyph d="M298 517Q345 517 388 503T464 463L437 418Q379 463 298 463Q210 463 164 405T118 252Q118 158 164 99T297 41Q371 41 437 86L462 41Q427 15 383 0T293 -14Q211 -14 157 23T78 120T53 252Q53 373 117 445T298 517ZM367 743L400 695L239 582L213 617Z" horiz-adv-x="500" unicode="ć"/>
			<glyph d="M401 725Q470 725 530 703T636 640L596 596Q556 630 507 648T402 667Q311 667 248 626T154 515T123 354Q123 264 154 194T247 84T401 44Q461 44 515 66T609 127L650 83Q604 36 539 10T400 -16Q290 -16 212 31T93 161T53 354Q53 464 93 548T212 678T401 725ZM367 909H420L543 811L518 781L393 867L269 780L244 811Z" horiz-adv-x="672" unicode="Ĉ"/>
			<glyph d="M298 517Q345 517 388 503T464 463L437 418Q379 463 298 463Q210 463 164 405T118 252Q118 158 164 99T297 41Q371 41 437 86L462 41Q427 15 383 0T293 -14Q211 -14 157 23T78 120T53 252Q53 373 117 445T298 517ZM268 731H321L446 611L419 582L295 687L170 582L143 611Z" horiz-adv-x="500" unicode="ĉ"/>
			<glyph d="M401 725Q470 725 530 703T636 640L596 596Q556 630 507 648T402 667Q311 667 248 626T154 515T123 354Q123 264 154 194T247 84T401 44Q461 44 515 66T609 127L650 83Q604 36 539 10T400 -16Q290 -16 212 31T93 161T53 354Q53 464 93 548T212 678T401 725ZM393 906Q438 906 438 862Q438 818 393 818Q347 818 347 862Q347 906 393 906Z" horiz-adv-x="672" unicode="Ċ"/>
			<glyph d="M298 517Q345 517 388 503T464 463L437 418Q379 463 298 463Q210 463 164 405T118 252Q118 158 164 99T297 41Q371 41 437 86L462 41Q427 15 383 0T293 -14Q211 -14 157 23T78 120T53 252Q53 373 117 445T298 517ZM295 728Q340 728 340 684Q340 640 295 640Q249 640 249 684Q249 728 295 728Z" horiz-adv-x="500" unicode="ċ"/>
			<glyph d="M401 725Q470 725 530 703T636 640L596 596Q556 630 507 648T402 667Q311 667 248 626T154 515T123 354Q123 264 154 194T247 84T401 44Q461 44 515 66T609 127L650 83Q604 36 539 10T400 -16Q290 -16 212 31T93 161T53 354Q53 464 93 548T212 678T401 725ZM268 913L392 826L517 912L542 882L419 784H366L243 882Z" horiz-adv-x="672" unicode="Č"/>
			<glyph d="M298 517Q345 517 388 503T464 463L437 418Q379 463 298 463Q210 463 164 405T118 252Q118 158 164 99T297 41Q371 41 437 86L462 41Q427 15 383 0T293 -14Q211 -14 157 23T78 120T53 252Q53 373 117 445T298 517ZM171 734L295 629L419 733L447 705L322 585H268L144 705Z" horiz-adv-x="500" unicode="č"/>
			<glyph d="M94 708H312Q487 708 581 620T675 354Q675 180 580 90T314 0H94ZM162 652V56H306Q452 56 529 130T606 354Q606 652 307 652ZM209 913L333 826L458 912L483 882L360 784H307L184 882Z" horiz-adv-x="728" unicode="Ď"/>
			<glyph d="M460 708H525V111Q525 64 531 0H471Q466 34 464 87H462Q407 -14 276 -14Q169 -14 111 59T53 251Q53 326 81 386T162 482T286 517Q343 517 385 497T460 442ZM294 465Q214 465 167 405T120 251Q120 155 165 96T289 38Q341 38 379 61T439 125T460 215V378Q428 421 387 443T294 465ZM606 724L662 709L620 551L579 560Z" horiz-adv-x="659" unicode="ď"/>
			<glyph d="M94 708H312Q487 708 581 620T675 354Q675 180 580 90T314 0H94V330H12V377H94ZM162 652V377H325V330H162V56H306Q452 56 529 130T606 354Q606 652 307 652Z" horiz-adv-x="728" unicode="Đ"/>
			<glyph d="M460 708H525V638H601V592H525V111Q525 64 531 0H471Q466 34 464 87H462Q407 -14 276 -14Q169 -14 111 59T53 251Q53 326 81 386T162 482T286 517Q343 517 385 497T460 442V592H300V638H460ZM294 465Q214 465 167 405T120 251Q120 155 165 96T289 38Q341 38 379 61T439 125T460 215V378Q428 421 387 443T294 465Z" horiz-adv-x="615" unicode="đ"/>
			<glyph d="M94 708H515V653H161V392H471V339H161V56H532V0H94ZM190 856H451V809H190Z" horiz-adv-x="560" unicode="Ē"/>
			<glyph d="M285 517Q393 517 450 446T507 259Q507 250 505 230H118Q122 144 167 91T296 38Q344 38 381 51T457 90L486 48Q444 18 397 2T293 -14Q179 -14 116 59T53 255Q53 332 80 391T160 484T285 517ZM284 467Q206 467 163 414T118 280H443Q441 366 401 416T284 467ZM158 661H419V614H158Z" horiz-adv-x="559" unicode="ē"/>
			<glyph d="M94 708H515V653H161V392H471V339H161V56H532V0H94ZM222 895Q233 860 257 841T319 823Q356 823 381 841T416 895L457 890Q446 836 410 806T319 776Q263 776 227 806T182 890Z" horiz-adv-x="560" unicode="Ĕ"/>
			<glyph d="M285 517Q393 517 450 446T507 259Q507 250 505 230H118Q122 144 167 91T296 38Q344 38 381 51T457 90L486 48Q444 18 397 2T293 -14Q179 -14 116 59T53 255Q53 332 80 391T160 484T285 517ZM284 467Q206 467 163 414T118 280H443Q441 366 401 416T284 467ZM190 715Q211 628 289 628Q367 628 387 715L428 710Q418 645 382 612T289 580Q231 580 195 613T149 710Z" horiz-adv-x="559" unicode="ĕ"/>
			<glyph d="M94 708H515V653H161V392H471V339H161V56H532V0H94ZM319 906Q364 906 364 862Q364 818 319 818Q273 818 273 862Q273 906 319 906Z" horiz-adv-x="560" unicode="Ė"/>
			<glyph d="M285 517Q393 517 450 446T507 259Q507 250 505 230H118Q122 144 167 91T296 38Q344 38 381 51T457 90L486 48Q444 18 397 2T293 -14Q179 -14 116 59T53 255Q53 332 80 391T160 484T285 517ZM284 467Q206 467 163 414T118 280H443Q441 366 401 416T284 467ZM289 728Q334 728 334 684Q334 640 289 640Q243 640 243 684Q243 728 289 728Z" horiz-adv-x="559" unicode="ė"/>
			<glyph d="M94 708H515V653H161V392H471V339H161V56H532V0H489Q435 -38 410 -70T386 -136Q386 -162 401 -175T443 -189Q476 -189 509 -171L524 -209Q484 -234 436 -234Q392 -234 363 -210T335 -144Q335 -66 431 0H94Z" horiz-adv-x="560" unicode="Ę"/>
			<glyph d="M285 517Q393 517 450 446T507 259Q507 250 505 230H118Q122 144 167 91T296 38Q344 38 381 51T457 90L486 48Q449 22 409 6Q355 -33 329 -68T303 -136Q303 -162 318 -175T360 -189Q393 -189 426 -171L441 -209Q401 -234 353 -234Q309 -234 280 -210T252 -144Q252 -71 337 -11Q316 -14 293 -14Q179 -14 116 59T53 255Q53 332 80 391T160 484T285 517ZM284 467Q206 467 163 414T118 280H443Q441 366 401 416T284 467Z" horiz-adv-x="559" unicode="ę"/>
			<glyph d="M94 708H515V653H161V392H471V339H161V56H532V0H94ZM194 913L318 826L443 912L468 882L345 784H292L169 882Z" horiz-adv-x="560" unicode="Ě"/>
			<glyph d="M285 517Q393 517 450 446T507 259Q507 250 505 230H118Q122 144 167 91T296 38Q344 38 381 51T457 90L486 48Q444 18 397 2T293 -14Q179 -14 116 59T53 255Q53 332 80 391T160 484T285 517ZM284 467Q206 467 163 414T118 280H443Q441 366 401 416T284 467ZM165 734L289 629L413 733L441 705L316 585H262L138 705Z" horiz-adv-x="559" unicode="ě"/>
			<glyph d="M407 724Q476 724 536 702T641 639L602 595Q562 629 513 647T409 666Q316 666 251 626T154 515T122 354Q122 211 193 125T404 40Q462 40 507 52T599 86V297H426V350H662V50Q603 19 542 1T404 -16Q291 -16 212 30T93 160T53 354Q53 464 94 547T216 677T407 724ZM377 909H430L553 811L528 781L403 867L279 780L254 811Z" horiz-adv-x="747" unicode="Ĝ"/>
			<glyph d="M255 515Q282 515 300 512T341 503H513V451L395 460Q423 443 440 409T458 330Q458 248 405 202T254 157Q204 157 172 142T141 104Q141 60 239 59Q381 58 443 23T506 -81Q506 -165 436 -211T241 -258Q133 -258 77 -219T22 -108Q22 -64 47 -29T134 33Q81 55 81 99Q81 125 101 145T158 176Q107 192 79 232T51 336Q51 419 105 467T255 515ZM253 466Q187 466 149 431T111 337Q111 273 146 238T253 204Q397 204 397 335Q397 395 360 430T253 466ZM186 9Q131 -13 108 -40T85 -105Q85 -207 243 -207Q340 -207 391 -176T442 -87Q442 -53 419 -32T340 -1T186 9ZM230 731H283L408 611L381 582L257 687L132 582L105 611Z" horiz-adv-x="537" unicode="ĝ"/>
			<glyph d="M407 724Q476 724 536 702T641 639L602 595Q562 629 513 647T409 666Q316 666 251 626T154 515T122 354Q122 211 193 125T404 40Q462 40 507 52T599 86V297H426V350H662V50Q603 19 542 1T404 -16Q291 -16 212 30T93 160T53 354Q53 464 94 547T216 677T407 724ZM306 895Q317 860 341 841T403 823Q440 823 465 841T500 895L541 890Q530 836 494 806T403 776Q347 776 311 806T266 890Z" horiz-adv-x="747" unicode="Ğ"/>
			<glyph d="M255 515Q282 515 300 512T341 503H513V451L395 460Q423 443 440 409T458 330Q458 248 405 202T254 157Q204 157 172 142T141 104Q141 60 239 59Q381 58 443 23T506 -81Q506 -165 436 -211T241 -258Q133 -258 77 -219T22 -108Q22 -64 47 -29T134 33Q81 55 81 99Q81 125 101 145T158 176Q107 192 79 232T51 336Q51 419 105 467T255 515ZM253 466Q187 466 149 431T111 337Q111 273 146 238T253 204Q397 204 397 335Q397 395 360 430T253 466ZM186 9Q131 -13 108 -40T85 -105Q85 -207 243 -207Q340 -207 391 -176T442 -87Q442 -53 419 -32T340 -1T186 9ZM158 715Q179 628 257 628Q335 628 355 715L396 710Q386 645 350 612T257 580Q199 580 163 613T117 710Z" horiz-adv-x="537" unicode="ğ"/>
			<glyph d="M407 724Q476 724 536 702T641 639L602 595Q562 629 513 647T409 666Q316 666 251 626T154 515T122 354Q122 211 193 125T404 40Q462 40 507 52T599 86V297H426V350H662V50Q603 19 542 1T404 -16Q291 -16 212 30T93 160T53 354Q53 464 94 547T216 677T407 724ZM403 906Q448 906 448 862Q448 818 403 818Q357 818 357 862Q357 906 403 906Z" horiz-adv-x="747" unicode="Ġ"/>
			<glyph d="M255 515Q282 515 300 512T341 503H513V451L395 460Q423 443 440 409T458 330Q458 248 405 202T254 157Q204 157 172 142T141 104Q141 60 239 59Q381 58 443 23T506 -81Q506 -165 436 -211T241 -258Q133 -258 77 -219T22 -108Q22 -64 47 -29T134 33Q81 55 81 99Q81 125 101 145T158 176Q107 192 79 232T51 336Q51 419 105 467T255 515ZM253 466Q187 466 149 431T111 337Q111 273 146 238T253 204Q397 204 397 335Q397 395 360 430T253 466ZM186 9Q131 -13 108 -40T85 -105Q85 -207 243 -207Q340 -207 391 -176T442 -87Q442 -53 419 -32T340 -1T186 9ZM257 728Q302 728 302 684Q302 640 257 640Q211 640 211 684Q211 728 257 728Z" horiz-adv-x="537" unicode="ġ"/>
			<glyph d="M407 724Q476 724 536 702T641 639L602 595Q562 629 513 647T409 666Q316 666 251 626T154 515T122 354Q122 211 193 125T404 40Q462 40 507 52T599 86V297H426V350H662V50Q603 19 542 1T404 -16Q291 -16 212 30T93 160T53 354Q53 464 94 547T216 677T407 724ZM415 -66Q456 -66 456 -107Q456 -142 441 -176T389 -257L361 -242Q382 -211 390 -188T401 -137Q373 -131 373 -103Q373 -66 415 -66Z" horiz-adv-x="747" unicode="Ģ"/>
			<glyph d="M255 515Q282 515 300 512T341 503H513V451L395 460Q423 443 440 409T458 330Q458 248 405 202T254 157Q204 157 172 142T141 104Q141 60 239 59Q381 58 443 23T506 -81Q506 -165 436 -211T241 -258Q133 -258 77 -219T22 -108Q22 -64 47 -29T134 33Q81 55 81 99Q81 125 101 145T158 176Q107 192 79 232T51 336Q51 419 105 467T255 515ZM253 466Q187 466 149 431T111 337Q111 273 146 238T253 204Q397 204 397 335Q397 395 360 430T253 466ZM186 9Q131 -13 108 -40T85 -105Q85 -207 243 -207Q340 -207 391 -176T442 -87Q442 -53 419 -32T340 -1T186 9ZM280 812L308 797Q287 766 278 743T268 692Q296 686 296 658Q296 621 254 621Q213 621 213 662Q213 697 228 731T280 812Z" horiz-adv-x="537" unicode="ģ"/>
			<glyph d="M94 708H162V393H572V708H640V0H572V337H162V0H94ZM341 909H394L517 811L492 781L367 867L243 780L218 811Z" horiz-adv-x="735" unicode="Ĥ"/>
			<glyph d="M91 708H156V421H158Q181 464 225 490T336 517Q432 517 477 461T523 322V0H458V310Q458 376 425 419T320 463Q271 463 233 440T176 379T156 293V0H91ZM277 909H330L453 811L428 781L303 867L179 780L154 811Z" horiz-adv-x="606" unicode="ĥ"/>
			<glyph d="M94 708H162V594H572V708H640V594H725V547H640V0H572V337H162V0H94V547H5V594H94ZM162 547V393H572V547Z" horiz-adv-x="735" unicode="Ħ"/>
			<glyph d="M91 708H156V638H315V592H156V421H158Q181 464 225 490T336 517Q432 517 477 461T523 322V0H458V310Q458 376 425 419T320 463Q271 463 233 440T176 379T156 293V0H91V592H14V638H91Z" horiz-adv-x="606" unicode="ħ"/>
			<glyph d="M57 708H294V657H209V52H294V0H57V52H142V657H57ZM120 880Q135 880 150 873T183 854Q201 842 210 837T230 832Q247 832 261 842T289 878L324 863Q291 787 231 787Q216 787 202 793T166 814Q152 824 141 829T121 834Q104 834 90 823T62 789L27 804Q62 880 120 880Z" horiz-adv-x="351" unicode="Ĩ"/>
			<glyph d="M91 503H156V0H91ZM68 685Q84 685 99 678T131 659T158 642T178 637Q195 637 209 647T237 683L272 668Q239 592 179 592Q165 592 150 598T116 618Q100 629 89 634T69 639Q52 639 38 628T10 594L-25 609Q10 685 68 685Z" horiz-adv-x="247" unicode="ĩ"/>
			<glyph d="M57 708H294V657H209V52H294V0H57V52H142V657H57ZM47 856H308V809H47Z" horiz-adv-x="351" unicode="Ī"/>
			<glyph d="M91 503H156V0H91ZM-8 661H253V614H-8Z" horiz-adv-x="247" unicode="ī"/>
			<glyph d="M57 708H294V657H209V52H294V0H57V52H142V657H57ZM79 895Q90 860 114 841T176 823Q213 823 238 841T273 895L314 890Q303 836 267 806T176 776Q120 776 84 806T39 890Z" horiz-adv-x="351" unicode="Ĭ"/>
			<glyph d="M91 503H156V0H91ZM24 715Q45 628 123 628Q201 628 221 715L262 710Q252 645 216 612T123 580Q65 580 29 613T-17 710Z" horiz-adv-x="247" unicode="ĭ"/>
			<glyph d="M57 708H294V657H209V52H294V0H200Q146 -38 121 -70T97 -136Q97 -162 112 -175T154 -189Q187 -189 220 -171L235 -209Q195 -234 147 -234Q103 -234 74 -210T46 -144Q46 -66 142 0H57V52H142V657H57Z" horiz-adv-x="351" unicode="Į"/>
			<glyph d="M123 728Q168 728 168 684Q168 640 123 640Q77 640 77 684Q77 728 123 728ZM91 503H156V0H143Q89 -38 64 -70T40 -136Q40 -162 55 -175T97 -189Q130 -189 163 -171L178 -209Q138 -234 90 -234Q46 -234 17 -210T-11 -144Q-11 -104 15 -66T91 4Z" horiz-adv-x="247" unicode="į"/>
			<glyph d="M57 708H294V657H209V52H294V0H57V52H142V657H57ZM176 906Q221 906 221 862Q221 818 176 818Q130 818 130 862Q130 906 176 906Z" horiz-adv-x="351" unicode="İ"/>
			<glyph d="M91 503H156V0H91Z" horiz-adv-x="247" unicode="ı"/>
			<glyph d="M57 708H294V657H209V52H294V0H57V52H142V657H57ZM612 708H679V197Q679 103 630 43T483 -16Q416 -16 358 16L383 66Q404 55 429 48T479 42Q547 42 579 84T612 197Z" horiz-adv-x="764" unicode="Ĳ"/>
			<glyph d="M91 503H156V0H91ZM370 728Q415 728 415 684Q415 640 370 640Q324 640 324 684Q324 728 370 728ZM338 503H403V-101Q403 -258 265 -258Q238 -258 217 -252L229 -203Q241 -206 257 -206Q301 -206 319 -180T338 -102ZM123 728Q168 728 168 684Q168 640 123 640Q77 640 77 684Q77 728 123 728Z" horiz-adv-x="494" unicode="ĳ"/>
			<glyph d="M261 708H328V197Q328 103 279 43T132 -16Q65 -16 7 16L32 66Q53 55 78 48T128 42Q196 42 228 84T261 197ZM269 909H322L445 811L420 781L295 867L171 780L146 811Z" horiz-adv-x="413" unicode="Ĵ"/>
			<glyph d="M91 503H156V-101Q156 -258 18 -258Q-9 -258 -30 -252L-18 -203Q-6 -206 10 -206Q54 -206 72 -180T91 -102ZM96 731H149L274 611L247 582L123 687L-2 582L-29 611Z" horiz-adv-x="247" unicode="ĵ"/>
			<glyph d="M94 708H162V369L488 708H569L258 385L591 0H508L214 339L162 286V0H94ZM327 -66Q368 -66 368 -107Q368 -142 353 -176T301 -257L273 -242Q294 -211 302 -188T313 -137Q285 -131 285 -103Q285 -66 327 -66Z" horiz-adv-x="598" unicode="Ķ"/>
			<glyph d="M91 708H156V279L399 503H478L254 295L503 0H421L208 253L156 205V0H91ZM290 -66Q331 -66 331 -107Q331 -142 316 -176T264 -257L236 -242Q257 -211 265 -188T276 -137Q248 -131 248 -103Q248 -66 290 -66Z" horiz-adv-x="505" unicode="ķ"/>
			<glyph d="M91 503H156V260L399 503H478L251 279L503 0H421L207 236L156 186V0H91Z" horiz-adv-x="505" unicode="ĸ"/>
			<glyph d="M94 708H162V57H495V0H94ZM206 922L235 873L62 779L40 815Z" horiz-adv-x="500" unicode="Ĺ"/>
			<glyph d="M91 708H156V0H91ZM201 922L230 873L57 779L35 815Z" horiz-adv-x="247" unicode="ĺ"/>
			<glyph d="M94 708H162V57H495V0H94ZM296 -66Q337 -66 337 -107Q337 -142 322 -176T270 -257L242 -242Q263 -211 271 -188T282 -137Q254 -131 254 -103Q254 -66 296 -66Z" horiz-adv-x="500" unicode="Ļ"/>
			<glyph d="M91 708H156V0H91ZM124 -66Q165 -66 165 -107Q165 -142 150 -176T98 -257L70 -242Q91 -211 99 -188T110 -137Q82 -131 82 -103Q82 -66 124 -66Z" horiz-adv-x="247" unicode="ļ"/>
			<glyph d="M94 708H162V57H495V0H94ZM274 724L330 709L288 551L247 560Z" horiz-adv-x="500" unicode="Ľ"/>
			<glyph d="M91 708H156V0H91ZM233 724L289 709L247 551L206 560Z" horiz-adv-x="286" unicode="ľ"/>
			<glyph d="M94 708H162V57H495V0H94ZM375 428Q420 428 420 384Q420 340 375 340Q329 340 329 384Q329 428 375 428Z" horiz-adv-x="500" unicode="Ŀ"/>
			<glyph d="M91 708H156V0H91ZM256 385Q301 385 301 341Q301 297 256 297Q210 297 210 341Q210 385 256 385Z" horiz-adv-x="265" unicode="ŀ"/>
			<glyph d="M94 708H162V363L370 474L393 432L162 308V57H495V0H94V272L45 245L22 288L94 326Z" horiz-adv-x="500" unicode="Ł"/>
			<glyph d="M96 708H161V371L226 406L247 364L161 318V0H96V283L30 247L10 289L96 336Z" horiz-adv-x="257" unicode="ł"/>
			<glyph d="M94 708H173L616 91H618L617 708H680V0H601L159 617H157L158 0H94ZM465 922L494 873L321 779L299 815Z" horiz-adv-x="775" unicode="Ń"/>
			<glyph d="M335 517Q430 517 476 461T522 322V0H457V310Q457 376 424 419T319 463Q270 463 232 440T175 379T155 293V0H90V393Q90 449 83 503H145Q151 467 151 419H153Q178 464 224 490T335 517ZM383 743L416 695L255 582L229 617Z" horiz-adv-x="605" unicode="ń"/>
			<glyph d="M94 708H173L616 91H618L617 708H680V0H601L159 617H157L158 0H94ZM388 -66Q429 -66 429 -107Q429 -142 414 -176T362 -257L334 -242Q355 -211 363 -188T374 -137Q346 -131 346 -103Q346 -66 388 -66Z" horiz-adv-x="775" unicode="Ņ"/>
			<glyph d="M335 517Q430 517 476 461T522 322V0H457V310Q457 376 424 419T319 463Q270 463 232 440T175 379T155 293V0H90V393Q90 449 83 503H145Q151 467 151 419H153Q178 464 224 490T335 517ZM304 -66Q345 -66 345 -107Q345 -142 330 -176T278 -257L250 -242Q271 -211 279 -188T290 -137Q262 -131 262 -103Q262 -66 304 -66Z" horiz-adv-x="605" unicode="ņ"/>
			<glyph d="M94 708H173L616 91H618L617 708H680V0H601L159 617H157L158 0H94ZM262 913L386 826L511 912L536 882L413 784H360L237 882Z" horiz-adv-x="775" unicode="Ň"/>
			<glyph d="M335 517Q430 517 476 461T522 322V0H457V310Q457 376 424 419T319 463Q270 463 232 440T175 379T155 293V0H90V393Q90 449 83 503H145Q151 467 151 419H153Q178 464 224 490T335 517ZM187 734L311 629L435 733L463 705L338 585H284L160 705Z" horiz-adv-x="605" unicode="ň"/>
			<glyph d="M335 517Q430 517 476 461T522 322V0H457V310Q457 376 424 419T319 463Q270 463 232 440T175 379T155 293V0H90V393Q90 449 83 503H145Q151 467 151 419H153Q178 464 224 490T335 517ZM100 764Q141 764 141 722Q141 688 126 654T75 573L47 587Q67 620 75 642T86 693Q59 699 59 727Q59 764 100 764Z" horiz-adv-x="605" unicode="ŉ"/>
			<glyph d="M94 708H173L616 91H618L617 708H680V-101Q680 -180 646 -219T542 -258Q515 -258 495 -252L506 -203Q518 -206 535 -206Q579 -206 597 -180T615 -102V0H601L159 617H157L158 0H94Z" horiz-adv-x="775" unicode="Ŋ"/>
			<glyph d="M335 517Q430 517 476 461T522 322V-101Q522 -180 488 -219T384 -258Q356 -258 337 -252L348 -203Q360 -206 377 -206Q421 -206 439 -180T457 -102V310Q457 376 424 419T319 463Q270 463 232 440T175 379T155 293V0H90V393Q90 449 83 503H145Q151 467 151 419H153Q178 464 224 490T335 517Z" horiz-adv-x="605" unicode="ŋ"/>
			<glyph d="M404 724Q514 724 593 677T714 547T756 354Q756 244 714 160T593 30T404 -16Q294 -16 215 30T94 161T53 354Q53 463 94 547T215 677T404 724ZM404 666Q313 666 249 626T154 516T122 354Q122 262 154 191T249 81T404 42Q496 42 559 81T655 191T687 354Q687 446 655 516T559 626T404 666ZM275 856H536V809H275Z" horiz-adv-x="809" unicode="Ō"/>
			<glyph d="M300 518Q418 518 483 446T549 253Q549 174 520 114T434 20T300 -14Q222 -14 166 20T82 114T53 253Q53 374 117 446T300 518ZM300 466Q210 466 165 407T120 253Q120 157 165 97T300 38Q391 38 436 97T482 253Q482 349 436 407T300 466ZM170 661H431V614H170Z" horiz-adv-x="602" unicode="ō"/>
			<glyph d="M404 724Q514 724 593 677T714 547T756 354Q756 244 714 160T593 30T404 -16Q294 -16 215 30T94 161T53 354Q53 463 94 547T215 677T404 724ZM404 666Q313 666 249 626T154 516T122 354Q122 262 154 191T249 81T404 42Q496 42 559 81T655 191T687 354Q687 446 655 516T559 626T404 666ZM307 895Q318 860 342 841T404 823Q441 823 466 841T501 895L542 890Q531 836 495 806T404 776Q348 776 312 806T267 890Z" horiz-adv-x="809" unicode="Ŏ"/>
			<glyph d="M300 518Q418 518 483 446T549 253Q549 174 520 114T434 20T300 -14Q222 -14 166 20T82 114T53 253Q53 374 117 446T300 518ZM300 466Q210 466 165 407T120 253Q120 157 165 97T300 38Q391 38 436 97T482 253Q482 349 436 407T300 466ZM202 715Q223 628 301 628Q379 628 399 715L440 710Q430 645 394 612T301 580Q243 580 207 613T161 710Z" horiz-adv-x="602" unicode="ŏ"/>
			<glyph d="M404 724Q514 724 593 677T714 547T756 354Q756 244 714 160T593 30T404 -16Q294 -16 215 30T94 161T53 354Q53 463 94 547T215 677T404 724ZM404 666Q313 666 249 626T154 516T122 354Q122 262 154 191T249 81T404 42Q496 42 559 81T655 191T687 354Q687 446 655 516T559 626T404 666ZM405 946L449 922L351 772L319 789ZM528 939L571 910L466 766L434 786Z" horiz-adv-x="809" unicode="Ő"/>
			<glyph d="M300 518Q418 518 483 446T549 253Q549 174 520 114T434 20T300 -14Q222 -14 166 20T82 114T53 253Q53 374 117 446T300 518ZM300 466Q210 466 165 407T120 253Q120 157 165 97T300 38Q391 38 436 97T482 253Q482 349 436 407T300 466ZM300 751L344 727L246 577L214 594ZM423 744L466 715L361 571L329 591Z" horiz-adv-x="602" unicode="ő"/>
			<glyph d="M392 724Q448 724 494 708H969V653H583Q637 612 669 545T709 392H926V339H710Q707 244 672 171T576 56H986V0H493Q445 -16 392 -16Q288 -16 211 30T94 161T53 354Q53 463 94 547T211 677T392 724ZM392 666Q306 666 245 626T153 516T122 354Q122 262 153 191T245 81T392 42Q472 42 528 81T613 191T642 354Q642 446 613 516T528 626T392 666Z" horiz-adv-x="1014" unicode="Œ"/>
			<glyph d="M291 518Q366 518 417 483T496 384Q554 517 689 517Q790 517 845 446T901 259Q901 250 899 230H530Q534 145 578 91T699 38Q741 38 777 51T851 90L880 48Q794 -14 696 -14Q553 -14 497 121Q438 -14 291 -14Q217 -14 163 20T81 114T53 253Q53 373 116 445T291 518ZM688 467Q615 467 573 413T530 280H837Q836 365 797 416T688 467ZM291 466Q207 466 163 407T119 253Q119 158 163 98T291 38Q376 38 420 97T465 253Q465 348 420 407T291 466Z" horiz-adv-x="953" unicode="œ"/>
			<glyph d="M94 708H320Q386 708 440 683T526 608T559 485Q559 399 512 347T391 277L574 0H497L326 268H162V0H94ZM162 653V321H318Q392 321 441 363T490 485Q490 569 440 611T317 653ZM377 922L406 873L233 779L211 815Z" horiz-adv-x="618" unicode="Ŕ"/>
			<glyph d="M316 517Q331 517 343 515L340 459Q330 461 311 461Q236 461 195 409T155 274V0H90V393Q90 449 83 503H145Q151 463 151 414H153Q196 517 316 517ZM279 743L312 695L151 582L125 617Z" horiz-adv-x="350" unicode="ŕ"/>
			<glyph d="M94 708H320Q386 708 440 683T526 608T559 485Q559 399 512 347T391 277L574 0H497L326 268H162V0H94ZM162 653V321H318Q392 321 441 363T490 485Q490 569 440 611T317 653ZM321 -66Q362 -66 362 -107Q362 -142 347 -176T295 -257L267 -242Q288 -211 296 -188T307 -137Q279 -131 279 -103Q279 -66 321 -66Z" horiz-adv-x="618" unicode="Ŗ"/>
			<glyph d="M316 517Q331 517 343 515L340 459Q330 461 311 461Q236 461 195 409T155 274V0H90V393Q90 449 83 503H145Q151 463 151 414H153Q196 517 316 517ZM123 -66Q164 -66 164 -107Q164 -142 149 -176T97 -257L69 -242Q90 -211 98 -188T109 -137Q81 -131 81 -103Q81 -66 123 -66Z" horiz-adv-x="350" unicode="ŗ"/>
			<glyph d="M94 708H320Q386 708 440 683T526 608T559 485Q559 399 512 347T391 277L574 0H497L326 268H162V0H94ZM162 653V321H318Q392 321 441 363T490 485Q490 569 440 611T317 653ZM174 913L298 826L423 912L448 882L325 784H272L149 882Z" horiz-adv-x="618" unicode="Ř"/>
			<glyph d="M316 517Q331 517 343 515L340 459Q330 461 311 461Q236 461 195 409T155 274V0H90V393Q90 449 83 503H145Q151 463 151 414H153Q196 517 316 517ZM83 734L207 629L331 733L359 705L234 585H180L56 705Z" horiz-adv-x="350" unicode="ř"/>
			<glyph d="M287 723Q406 723 494 658L463 613Q423 641 381 654T287 668Q213 668 168 635T124 542Q124 485 163 456T290 403Q398 374 453 327T508 188Q508 123 476 77T390 7T267 -16Q129 -16 32 68L66 110Q111 74 159 57T267 41Q344 41 392 78T440 186Q440 234 418 264T356 314T255 349Q154 376 105 418T57 539Q57 625 121 674T287 723ZM370 922L399 873L226 779L204 815Z" horiz-adv-x="550" unicode="Ś"/>
			<glyph d="M217 517Q313 517 380 465L351 423Q292 466 219 466Q167 466 137 445T107 387Q107 360 119 342T159 312T238 287Q317 268 354 232T391 138Q391 67 338 26T207 -14Q100 -14 27 45L57 86Q92 61 126 49T205 37Q259 37 291 63T324 134Q324 164 312 182T273 214T194 240Q113 260 77 293T42 383Q42 445 90 481T217 517ZM292 743L325 695L164 582L138 617Z" horiz-adv-x="434" unicode="ś"/>
			<glyph d="M287 723Q406 723 494 658L463 613Q423 641 381 654T287 668Q213 668 168 635T124 542Q124 485 163 456T290 403Q398 374 453 327T508 188Q508 123 476 77T390 7T267 -16Q129 -16 32 68L66 110Q111 74 159 57T267 41Q344 41 392 78T440 186Q440 234 418 264T356 314T255 349Q154 376 105 418T57 539Q57 625 121 674T287 723ZM266 909H319L442 811L417 781L292 867L168 780L143 811Z" horiz-adv-x="550" unicode="Ŝ"/>
			<glyph d="M217 517Q313 517 380 465L351 423Q292 466 219 466Q167 466 137 445T107 387Q107 360 119 342T159 312T238 287Q317 268 354 232T391 138Q391 67 338 26T207 -14Q100 -14 27 45L57 86Q92 61 126 49T205 37Q259 37 291 63T324 134Q324 164 312 182T273 214T194 240Q113 260 77 293T42 383Q42 445 90 481T217 517ZM193 731H246L371 611L344 582L220 687L95 582L68 611Z" horiz-adv-x="434" unicode="ŝ"/>
			<glyph d="M287 723Q406 723 494 658L463 613Q423 641 381 654T287 668Q213 668 168 635T124 542Q124 485 163 456T290 403Q398 374 453 327T508 188Q508 99 451 47T303 -14L282 -71Q293 -68 314 -68Q350 -68 373 -88T396 -144Q396 -189 363 -212T282 -236Q227 -236 185 -212L202 -176Q238 -194 281 -194Q312 -194 329 -181T346 -145Q346 -124 333 -113T297 -102Q281 -102 255 -108H221L257 -16Q126 -13 32 68L66 110Q111 74 159 57T267 41Q344 41 392 78T440 186Q440 234 418 264T356 314T255 349Q154 376 105 418T57 539Q57 625 121 674T287 723Z" horiz-adv-x="550" unicode="Ş"/>
			<glyph d="M217 517Q313 517 380 465L351 423Q292 466 219 466Q167 466 137 445T107 387Q107 360 119 342T159 312T238 287Q317 268 354 232T391 138Q391 73 346 33T230 -13L209 -71Q220 -68 241 -68Q277 -68 300 -88T323 -144Q323 -189 290 -212T209 -236Q154 -236 112 -212L129 -176Q165 -194 208 -194Q239 -194 256 -181T273 -145Q273 -124 260 -113T224 -102Q208 -102 182 -108H148L185 -13Q93 -9 27 45L57 86Q92 61 126 49T205 37Q259 37 291 63T324 134Q324 164 312 182T273 214T194 240Q113 260 77 293T42 383Q42 445 90 481T217 517Z" horiz-adv-x="434" unicode="ş"/>
			<glyph d="M287 723Q406 723 494 658L463 613Q423 641 381 654T287 668Q213 668 168 635T124 542Q124 485 163 456T290 403Q398 374 453 327T508 188Q508 123 476 77T390 7T267 -16Q129 -16 32 68L66 110Q111 74 159 57T267 41Q344 41 392 78T440 186Q440 234 418 264T356 314T255 349Q154 376 105 418T57 539Q57 625 121 674T287 723ZM167 913L291 826L416 912L441 882L318 784H265L142 882Z" horiz-adv-x="550" unicode="Š"/>
			<glyph d="M217 517Q313 517 380 465L351 423Q292 466 219 466Q167 466 137 445T107 387Q107 360 119 342T159 312T238 287Q317 268 354 232T391 138Q391 67 338 26T207 -14Q100 -14 27 45L57 86Q92 61 126 49T205 37Q259 37 291 63T324 134Q324 164 312 182T273 214T194 240Q113 260 77 293T42 383Q42 445 90 481T217 517ZM96 734L220 629L344 733L372 705L247 585H193L69 705Z" horiz-adv-x="434" unicode="š"/>
			<glyph d="M5 708H531V650H301V0H292L266 -71Q277 -68 298 -68Q334 -68 357 -88T380 -144Q380 -189 348 -212T266 -236Q211 -236 169 -212L186 -176Q220 -194 265 -194Q296 -194 313 -181T330 -145Q330 -124 317 -113T281 -102Q265 -102 239 -108H205L247 0H234V650H5Z" horiz-adv-x="536" unicode="Ţ"/>
			<glyph d="M172 655V503H311V453H172V125Q172 39 251 39Q281 39 303 47L313 -2Q280 -14 240 -14H238L217 -71Q228 -68 249 -68Q285 -68 308 -88T331 -144Q331 -189 298 -212T217 -236Q162 -236 120 -212L137 -176Q173 -194 216 -194Q247 -194 264 -181T281 -145Q281 -124 268 -113T232 -102Q216 -102 190 -108H156L195 -8Q153 3 130 36T107 121V453H15V495L107 503V632Z" horiz-adv-x="343" unicode="ţ"/>
			<glyph d="M5 708H531V650H301V0H234V650H5ZM143 913L267 826L392 912L417 882L294 784H241L118 882Z" horiz-adv-x="536" unicode="Ť"/>
			<glyph d="M172 655V503H311V453H172V125Q172 39 251 39Q281 39 303 47L313 -2Q280 -14 240 -14Q178 -14 142 21T107 121V453H15V495L107 503V632ZM280 724L336 709L294 551L253 560Z" horiz-adv-x="343" unicode="ť"/>
			<glyph d="M5 708H531V650H301V378H424V331H301V0H234V331H111V378H234V650H5Z" horiz-adv-x="536" unicode="Ŧ"/>
			<glyph d="M172 655V503H311V453H172V330H281V282H172V125Q172 39 251 39Q281 39 303 47L313 -2Q280 -14 240 -14Q178 -14 142 21T107 121V282H15V330H107V453H15V495L107 503V632Z" horiz-adv-x="343" unicode="ŧ"/>
			<glyph d="M85 708H153V258Q153 152 204 97T366 43Q478 43 529 97T581 258V708H648V253Q648 124 577 54T366 -16Q227 -16 156 54T85 253ZM311 880Q326 880 341 873T374 854Q392 842 401 837T421 832Q438 832 452 842T480 878L515 863Q482 787 422 787Q407 787 393 793T357 814Q343 824 332 829T312 834Q295 834 281 823T253 789L218 804Q253 880 311 880Z" horiz-adv-x="733" unicode="Ũ"/>
			<glyph d="M83 503H148V205Q148 131 181 84T284 38Q335 38 372 64T430 136T451 237V503H516V111Q516 64 522 0H460Q455 39 454 96H452Q426 43 380 14T270 -15Q177 -15 130 43T83 196ZM251 685Q267 685 282 678T314 659T341 642T361 637Q378 637 392 647T420 683L455 668Q422 592 362 592Q348 592 333 598T299 618Q283 629 272 634T252 639Q235 639 221 628T193 594L158 609Q193 685 251 685Z" horiz-adv-x="605" unicode="ũ"/>
			<glyph d="M85 708H153V258Q153 152 204 97T366 43Q478 43 529 97T581 258V708H648V253Q648 124 577 54T366 -16Q227 -16 156 54T85 253ZM238 856H499V809H238Z" horiz-adv-x="733" unicode="Ū"/>
			<glyph d="M83 503H148V205Q148 131 181 84T284 38Q335 38 372 64T430 136T451 237V503H516V111Q516 64 522 0H460Q455 39 454 96H452Q426 43 380 14T270 -15Q177 -15 130 43T83 196ZM175 661H436V614H175Z" horiz-adv-x="605" unicode="ū"/>
			<glyph d="M85 708H153V258Q153 152 204 97T366 43Q478 43 529 97T581 258V708H648V253Q648 124 577 54T366 -16Q227 -16 156 54T85 253ZM270 895Q281 860 305 841T367 823Q404 823 429 841T464 895L505 890Q494 836 458 806T367 776Q311 776 275 806T230 890Z" horiz-adv-x="733" unicode="Ŭ"/>
			<glyph d="M83 503H148V205Q148 131 181 84T284 38Q335 38 372 64T430 136T451 237V503H516V111Q516 64 522 0H460Q455 39 454 96H452Q426 43 380 14T270 -15Q177 -15 130 43T83 196ZM207 715Q228 628 306 628Q384 628 404 715L445 710Q435 645 399 612T306 580Q248 580 212 613T166 710Z" horiz-adv-x="605" unicode="ŭ"/>
			<glyph d="M85 708H153V258Q153 152 204 97T366 43Q478 43 529 97T581 258V708H648V253Q648 124 577 54T366 -16Q227 -16 156 54T85 253ZM367 971Q413 971 442 943T472 872Q472 829 443 801T367 773Q320 773 291 801T263 872Q263 916 292 943T367 971ZM367 933Q340 933 324 916T308 872Q308 844 324 827T367 811Q394 811 410 827T426 872Q426 900 410 916T367 933Z" horiz-adv-x="733" unicode="Ů"/>
			<glyph d="M83 503H148V205Q148 131 181 84T284 38Q335 38 372 64T430 136T451 237V503H516V111Q516 64 522 0H460Q455 39 454 96H452Q426 43 380 14T270 -15Q177 -15 130 43T83 196ZM306 776Q352 776 381 748T411 677Q411 634 382 606T306 578Q259 578 230 606T202 677Q202 721 231 748T306 776ZM306 738Q279 738 263 721T247 677Q247 649 263 632T306 616Q333 616 349 632T365 677Q365 705 349 721T306 738Z" horiz-adv-x="605" unicode="ů"/>
			<glyph d="M85 708H153V258Q153 152 204 97T366 43Q478 43 529 97T581 258V708H648V253Q648 124 577 54T366 -16Q227 -16 156 54T85 253ZM368 946L412 922L314 772L282 789ZM491 939L534 910L429 766L397 786Z" horiz-adv-x="733" unicode="Ű"/>
			<glyph d="M83 503H148V205Q148 131 181 84T284 38Q335 38 372 64T430 136T451 237V503H516V111Q516 64 522 0H460Q455 39 454 96H452Q426 43 380 14T270 -15Q177 -15 130 43T83 196ZM305 751L349 727L251 577L219 594ZM428 744L471 715L366 571L334 591Z" horiz-adv-x="605" unicode="ű"/>
			<glyph d="M85 708H153V258Q153 152 204 97T366 43Q478 43 529 97T581 258V708H648V253Q648 157 608 93T489 2Q438 -36 413 -69T388 -136Q388 -162 403 -175T445 -189Q478 -189 511 -171L526 -209Q486 -234 438 -234Q394 -234 365 -210T337 -144Q337 -75 419 -13Q395 -16 366 -16Q227 -16 156 54T85 253Z" horiz-adv-x="733" unicode="Ų"/>
			<glyph d="M83 503H148V205Q148 131 181 84T284 38Q335 38 372 64T430 136T451 237V503H516V111Q516 64 522 0H511Q457 -38 432 -70T408 -136Q408 -162 423 -175T465 -189Q498 -189 531 -171L546 -209Q506 -234 458 -234Q414 -234 385 -210T357 -144Q357 -104 384 -66T460 4Q455 42 454 96H452Q426 43 380 14T270 -15Q177 -15 130 43T83 196Z" horiz-adv-x="605" unicode="ų"/>
			<glyph d="M18 708H88L264 85H267L446 708H521L704 85H706L885 708H952L743 0H669L484 625H481L300 0H226ZM458 909H511L634 811L609 781L484 867L360 780L335 811Z" horiz-adv-x="969" unicode="Ŵ"/>
			<glyph d="M21 503H89L203 70H205L341 503H413L550 70H552L666 503H732L590 0H515L377 434H375L237 0H163ZM350 731H403L528 611L501 582L377 687L252 582L225 611Z" horiz-adv-x="753" unicode="ŵ"/>
			<glyph d="M-7 708H70L274 362H276L478 708H553L306 305V0H238V307ZM247 909H300L423 811L398 781L273 867L149 780L124 811Z" horiz-adv-x="546" unicode="Ŷ"/>
			<glyph d="M8 503H78L237 69H238L386 503H453L223 -135Q200 -199 165 -228T77 -258Q43 -258 15 -247L28 -198Q50 -204 69 -204Q107 -204 128 -182T165 -118L204 -3ZM204 731H257L382 611L355 582L231 687L106 582L79 611Z" horiz-adv-x="461" unicode="ŷ"/>
			<glyph d="M-7 708H70L274 362H276L478 708H553L306 305V0H238V307ZM187 897Q229 897 229 855Q229 813 187 813Q145 813 145 855Q145 874 155 885T187 897ZM363 897Q405 897 405 855Q405 813 363 813Q321 813 321 855Q321 897 363 897Z" horiz-adv-x="546" unicode="Ÿ"/>
			<glyph d="M50 708H528V650L116 57H539V0H38V60L450 653H50ZM372 922L401 873L228 779L206 815Z" horiz-adv-x="587" unicode="Ź"/>
			<glyph d="M49 503H391V452L111 52H402V0H35V53L314 453H49ZM295 743L328 695L167 582L141 617Z" horiz-adv-x="438" unicode="ź"/>
			<glyph d="M50 708H528V650L116 57H539V0H38V60L450 653H50ZM294 906Q339 906 339 862Q339 818 294 818Q248 818 248 862Q248 906 294 906Z" horiz-adv-x="587" unicode="Ż"/>
			<glyph d="M49 503H391V452L111 52H402V0H35V53L314 453H49ZM223 728Q268 728 268 684Q268 640 223 640Q177 640 177 684Q177 728 223 728Z" horiz-adv-x="438" unicode="ż"/>
			<glyph d="M50 708H528V650L116 57H539V0H38V60L450 653H50ZM169 913L293 826L418 912L443 882L320 784H267L144 882Z" horiz-adv-x="587" unicode="Ž"/>
			<glyph d="M49 503H391V452L111 52H402V0H35V53L314 453H49ZM99 734L223 629L347 733L375 705L250 585H196L72 705Z" horiz-adv-x="438" unicode="ž"/>
			<glyph d="M409 722Q452 722 490 711L476 664Q442 671 414 670Q314 669 314 557V503H443V455H314V-101Q314 -258 175 -258Q148 -258 128 -252L139 -203Q151 -206 168 -206Q212 -206 230 -180T249 -102V455H157V503H249V559Q249 637 289 679T409 722Z" unicode="ƒ"/>
			<glyph d="M287 723Q406 723 494 658L463 613Q423 641 381 654T287 668Q213 668 168 635T124 542Q124 485 163 456T290 403Q398 374 453 327T508 188Q508 123 476 77T390 7T267 -16Q129 -16 32 68L66 110Q111 74 159 57T267 41Q344 41 392 78T440 186Q440 234 418 264T356 314T255 349Q154 376 105 418T57 539Q57 625 121 674T287 723ZM285 -66Q326 -66 326 -107Q326 -142 311 -176T259 -257L231 -242Q252 -211 260 -188T271 -137Q243 -131 243 -103Q243 -66 285 -66Z" horiz-adv-x="550" unicode="Ș"/>
			<glyph d="M217 517Q313 517 380 465L351 423Q292 466 219 466Q167 466 137 445T107 387Q107 360 119 342T159 312T238 287Q317 268 354 232T391 138Q391 67 338 26T207 -14Q100 -14 27 45L57 86Q92 61 126 49T205 37Q259 37 291 63T324 134Q324 164 312 182T273 214T194 240Q113 260 77 293T42 383Q42 445 90 481T217 517ZM212 -66Q253 -66 253 -107Q253 -142 238 -176T186 -257L158 -242Q179 -211 187 -188T198 -137Q170 -131 170 -103Q170 -66 212 -66Z" horiz-adv-x="434" unicode="ș"/>
			<glyph d="M5 708H531V650H301V0H234V650H5ZM269 -66Q310 -66 310 -107Q310 -142 295 -176T243 -257L215 -242Q236 -211 244 -188T255 -137Q227 -131 227 -103Q227 -66 269 -66Z" horiz-adv-x="536" unicode="Ț"/>
			<glyph d="M172 655V503H311V453H172V125Q172 39 251 39Q281 39 303 47L313 -2Q280 -14 240 -14Q178 -14 142 21T107 121V453H15V495L107 503V632ZM220 -66Q261 -66 261 -107Q261 -142 246 -176T194 -257L166 -242Q187 -211 195 -188T206 -137Q178 -131 178 -103Q178 -66 220 -66Z" horiz-adv-x="343" unicode="ț"/>
			<glyph d="M91 503H156V-101Q156 -258 18 -258Q-9 -258 -30 -252L-18 -203Q-6 -206 10 -206Q54 -206 72 -180T91 -102Z" horiz-adv-x="247" unicode="ȷ"/>
			<glyph d="M155 731H208L333 611L306 582L182 687L57 582L30 611Z" horiz-adv-x="363" unicode="ˆ"/>
			<glyph d="M57 734L181 629L305 733L333 705L208 585H154L30 705Z" horiz-adv-x="363" unicode="ˇ"/>
			<glyph d="M30 661H291V614H30Z" horiz-adv-x="321" unicode="ˉ"/>
			<glyph d="M71 715Q92 628 170 628Q248 628 268 715L309 710Q299 645 263 612T170 580Q112 580 76 613T30 710Z" horiz-adv-x="339" unicode="˘"/>
			<glyph d="M76 728Q121 728 121 684Q121 640 76 640Q30 640 30 684Q30 728 76 728Z" horiz-adv-x="151" unicode="˙"/>
			<glyph d="M134 776Q180 776 209 748T239 677Q239 634 210 606T134 578Q87 578 58 606T30 677Q30 721 59 748T134 776ZM134 738Q107 738 91 721T75 677Q75 649 91 632T134 616Q161 616 177 632T193 677Q193 705 177 721T134 738Z" horiz-adv-x="269" unicode="˚"/>
			<glyph d="M138 8L184 0Q130 -38 105 -70T81 -136Q81 -162 96 -175T138 -189Q171 -189 204 -171L219 -209Q179 -234 131 -234Q87 -234 58 -210T30 -144Q30 -102 58 -63T138 8Z" horiz-adv-x="249" unicode="˛"/>
			<glyph d="M123 685Q139 685 154 678T186 659T213 642T233 637Q250 637 264 647T292 683L327 668Q294 592 234 592Q220 592 205 598T171 618Q155 629 144 634T124 639Q107 639 93 628T65 594L30 609Q65 685 123 685Z" horiz-adv-x="357" unicode="˜"/>
			<glyph d="M116 751L160 727L62 577L30 594ZM239 744L282 715L177 571L145 591Z" horiz-adv-x="312" unicode="˝"/>
			<glyph d="M-62 812L-34 797Q-55 766 -63 743T-74 692Q-46 686 -46 658Q-46 621 -88 621Q-129 621 -129 662Q-129 697 -114 731T-62 812Z" horiz-adv-x="0" unicode="̒"/>
			<glyph d="M-70 -66Q-29 -66 -29 -107Q-29 -142 -44 -176T-96 -257L-124 -242Q-103 -211 -94 -188T-84 -137Q-112 -131 -112 -103Q-112 -66 -70 -66Z" horiz-adv-x="0" unicode="̦"/>
			<glyph d="M291 708H364L646 0H8ZM327 646L100 54H552Z" horiz-adv-x="654" unicode="Δ"/>
			<glyph d="M394 724Q500 724 577 677T695 547T736 356Q736 252 693 176T576 58H736V0H472V58Q565 87 616 165T667 354Q667 446 635 516T542 626T394 666Q307 666 246 626T153 516T122 354Q122 244 173 165T316 58V0H53V58H213Q138 100 95 176T53 356Q53 464 94 547T212 677T394 724Z" horiz-adv-x="789" unicode="Ω"/>
			<glyph d="M89 503H155V205Q155 131 188 85T290 39Q341 39 378 65T436 137T457 238V503H522V111Q522 64 528 0H467Q462 35 460 96H458Q433 44 389 14T286 -15Q234 -15 203 6T153 61H151V-133Q151 -202 143 -244H83Q89 -180 89 -133Z" horiz-adv-x="612" unicode="μ"/>
			<glyph d="M553 517L563 467Q522 452 467 451V126Q467 63 486 0H423Q402 56 402 126V451H163V0H98V451H8V503H456Q506 503 553 517Z" horiz-adv-x="576" unicode="π"/>
			<glyph d="M18 708H88L264 85H267L446 708H521L704 85H706L885 708H952L743 0H669L484 625H481L300 0H226ZM405 922L571 815L548 779L376 873Z" horiz-adv-x="969" unicode="Ẁ"/>
			<glyph d="M21 503H89L203 70H205L341 503H413L550 70H552L666 503H732L590 0H515L377 434H375L237 0H163ZM306 743L460 617L434 582L273 695Z" horiz-adv-x="753" unicode="ẁ"/>
			<glyph d="M18 708H88L264 85H267L446 708H521L704 85H706L885 708H952L743 0H669L484 625H481L300 0H226ZM562 922L591 873L418 779L396 815Z" horiz-adv-x="969" unicode="Ẃ"/>
			<glyph d="M21 503H89L203 70H205L341 503H413L550 70H552L666 503H732L590 0H515L377 434H375L237 0H163ZM449 743L482 695L321 582L295 617Z" horiz-adv-x="753" unicode="ẃ"/>
			<glyph d="M18 708H88L264 85H267L446 708H521L704 85H706L885 708H952L743 0H669L484 625H481L300 0H226ZM398 897Q440 897 440 855Q440 813 398 813Q356 813 356 855Q356 874 366 885T398 897ZM574 897Q616 897 616 855Q616 813 574 813Q532 813 532 855Q532 897 574 897Z" horiz-adv-x="969" unicode="Ẅ"/>
			<glyph d="M21 503H89L203 70H205L341 503H413L550 70H552L666 503H732L590 0H515L377 434H375L237 0H163ZM289 702Q331 702 331 660Q331 618 289 618Q247 618 247 660Q247 680 257 691T289 702ZM465 702Q507 702 507 660Q507 618 465 618Q423 618 423 660Q423 702 465 702Z" horiz-adv-x="753" unicode="ẅ"/>
			<glyph d="M318 723Q394 723 455 697T576 619L423 421Q532 400 591 347T651 196Q651 93 586 38T417 -16Q324 -16 249 24L274 73Q340 40 414 40Q492 40 537 80T583 198Q583 278 528 321T356 381V423L499 611Q457 640 413 654T321 668Q241 668 194 629T148 504V0H80L81 508Q81 614 147 668T318 723Z" horiz-adv-x="694" unicode="ẞ"/>
			<glyph d="M-7 708H70L274 362H276L478 708H553L306 305V0H238V307ZM194 922L360 815L337 779L165 873Z" horiz-adv-x="546" unicode="Ỳ"/>
			<glyph d="M8 503H78L237 69H238L386 503H453L223 -135Q200 -199 165 -228T77 -258Q43 -258 15 -247L28 -198Q50 -204 69 -204Q107 -204 128 -182T165 -118L204 -3ZM160 743L314 617L288 582L127 695Z" horiz-adv-x="461" unicode="ỳ"/>
			<glyph d="M105 318H505V265H105Z" unicode="–"/>
			<glyph d="M46 318H545V265H46Z" horiz-adv-x="591" unicode="—"/>
			<glyph d="M174 723L197 702Q162 664 147 634T132 570Q171 566 171 531Q171 514 160 503T129 492Q108 492 96 505T84 545Q84 594 103 634T174 723Z" horiz-adv-x="253" unicode="‘"/>
			<glyph d="M118 726Q139 726 151 712T163 673Q163 621 143 582T73 495L50 516Q85 554 99 583T115 648Q76 652 76 687Q76 704 87 715T118 726Z" horiz-adv-x="216" unicode="’"/>
			<glyph d="M124 78Q145 78 157 64T169 25Q169 -26 149 -65T79 -153L56 -132Q91 -94 105 -64T121 0Q82 4 82 39Q82 56 93 67T124 78Z" horiz-adv-x="253" unicode="‚"/>
			<glyph d="M328 723L351 702Q316 664 301 634T286 570Q325 566 325 531Q325 514 314 503T283 492Q262 492 250 505T238 545Q238 594 257 634T328 723ZM174 723L197 702Q162 664 147 634T132 570Q171 566 171 531Q171 514 160 503T129 492Q108 492 96 505T84 545Q84 594 103 634T174 723Z" horiz-adv-x="407" unicode="“"/>
			<glyph d="M278 724Q299 724 311 710T323 671Q323 619 303 580T233 493L210 514Q245 552 259 581T275 646Q236 650 236 685Q236 702 247 713T278 724ZM124 724Q145 724 157 710T169 671Q169 619 149 580T79 493L56 514Q91 552 105 581T121 646Q82 650 82 685Q82 702 93 713T124 724Z" horiz-adv-x="407" unicode="”"/>
			<glyph d="M124 78Q145 78 157 64T169 25Q169 -26 149 -65T79 -153L56 -132Q91 -94 105 -64T121 0Q82 4 82 39Q82 56 93 67T124 78ZM278 78Q299 78 311 64T323 25Q323 -26 303 -65T233 -153L210 -132Q245 -94 259 -64T275 0Q236 4 236 39Q236 56 247 67T278 78Z" horiz-adv-x="407" unicode="„"/>
			<glyph d="M251 708H316V531H491V478H316V0H251V478H75V531H251Z" horiz-adv-x="566" unicode="†"/>
			<glyph d="M251 708H316V531H491V478H316V311H491V258H316V0H251V258H75V311H251V478H75V531H251Z" horiz-adv-x="566" unicode="‡"/>
			<glyph d="M163 407Q243 407 243 327Q243 250 163 250Q84 250 84 327Q84 407 163 407Z" horiz-adv-x="326" unicode="•"/>
			<glyph d="M393 84Q439 84 439 38Q439 -6 393 -6Q348 -6 348 38Q348 84 393 84ZM658 84Q704 84 704 38Q704 -6 658 -6Q613 -6 613 38Q613 84 658 84ZM129 84Q175 84 175 38Q175 -6 129 -6Q84 -6 84 38Q84 84 129 84Z" horiz-adv-x="787" unicode="…"/>
			<glyph d="M375 721Q440 721 487 692T558 615T583 511Q583 454 558 406T487 329T375 301Q310 301 262 329T190 406T166 511Q166 567 190 615T262 692T375 721ZM854 709H916L498 0H436ZM376 667Q305 667 267 621T230 511Q230 446 267 400T376 355Q446 355 482 400T519 511Q519 575 482 621T376 667ZM983 409Q1048 409 1095 380T1166 303T1191 199Q1191 142 1166 94T1095 17T983 -11Q918 -11 870 17T798 94T774 199Q774 255 798 303T870 380T983 409ZM1456 409Q1521 409 1568 380T1639 303T1664 199Q1664 142 1639 94T1568 17T1456 -11Q1391 -11 1343 17T1271 94T1247 199Q1247 255 1271 303T1343 380T1456 409ZM984 355Q913 355 875 309T838 199Q838 134 875 88T984 43Q1054 43 1090 88T1127 199Q1127 263 1090 309T984 355ZM1457 355Q1386 355 1348 309T1311 199Q1311 134 1348 88T1457 43Q1527 43 1563 88T1600 199Q1600 263 1563 309T1457 355Z" horiz-adv-x="1830" unicode="‰"/>
			<glyph d="M213 486L244 460L135 318L243 176L213 151L83 303V332Z" horiz-adv-x="327" unicode="‹"/>
			<glyph d="M114 486L244 332V303L114 151L83 176L191 318L83 460Z" horiz-adv-x="327" unicode="›"/>
			<glyph d="M290 709H352L-66 0H-128Z" horiz-adv-x="207" unicode="⁄"/>
			<glyph d="M270 720Q379 720 435 647T491 449Q491 324 435 251T270 179Q162 179 105 251T49 449Q49 575 105 647T270 720ZM270 666Q113 666 113 449Q113 347 151 290T270 233Q427 233 427 449Q427 666 270 666Z" horiz-adv-x="540" unicode="⁰"/>
			<glyph d="M245 708H312L134 371H334V516H395V371H476V317H395V191H334V317H64V365Z" horiz-adv-x="540" unicode="⁴"/>
			<glyph d="M118 708H437V655H179V491Q230 513 294 513Q373 513 419 470T465 355Q465 275 411 227T260 179Q199 179 156 196T75 250L111 287Q145 257 179 244T261 232Q327 232 363 265T400 354Q400 405 368 434T279 463Q243 463 216 456T162 436H118Z" horiz-adv-x="540" unicode="⁵"/>
			<glyph d="M303 720Q342 720 371 711T429 686L406 642Q383 656 359 662T304 669Q226 669 183 615T135 467Q165 497 204 513T297 529Q374 529 421 485T469 367Q469 282 417 230T274 179Q171 179 120 244T70 419Q70 558 130 639T303 720ZM285 480Q194 480 134 408Q135 322 168 276T274 231Q338 231 371 267T405 365Q405 421 373 450T285 480Z" horiz-adv-x="540" unicode="⁶"/>
			<glyph d="M84 707H456V657Q268 450 246 191H173Q192 324 242 438T379 654H84Z" horiz-adv-x="540" unicode="⁷"/>
			<glyph d="M270 720Q348 720 398 685T448 590Q448 549 424 518T349 462Q416 438 445 407T475 324Q475 282 449 249T377 197T269 179Q174 179 119 219T64 323Q64 375 96 409T190 468Q138 489 115 516T93 588Q93 647 143 683T270 720ZM270 673Q219 673 187 649T155 586Q155 553 178 531T256 493L296 479Q343 504 364 528T385 586Q385 627 353 650T270 673ZM243 449Q184 429 156 400T129 329Q129 281 166 255T270 229Q335 229 373 255T411 327Q411 368 383 389T284 435Z" horiz-adv-x="540" unicode="⁸"/>
			<glyph d="M270 720Q371 720 420 658T469 482Q469 339 383 260T136 181V233Q257 233 327 286T405 434Q343 372 246 372Q169 372 119 416T70 538Q70 618 123 669T270 720ZM269 668Q203 668 168 633T134 540Q134 482 167 451T259 421Q354 421 406 491Q404 582 373 625T269 668Z" horiz-adv-x="540" unicode="⁹"/>
			<glyph d="M244 632H297V511H420V461H297V340H244V461H120V511H244Z" horiz-adv-x="540" unicode="⁺"/>
			<glyph d="M120 511H420V461H120Z" horiz-adv-x="540" unicode="⁻"/>
			<glyph d="M120 591H420V541H120ZM120 435H420V385H120Z" horiz-adv-x="540" unicode="⁼"/>
			<glyph d="M320 800L359 774Q306 697 276 620T246 449Q246 356 275 279T359 125L320 99Q255 182 218 265T181 449Q181 550 218 634T320 800Z" horiz-adv-x="540" unicode="⁽"/>
			<glyph d="M220 800Q285 720 322 635T359 449Q359 348 322 264T220 99L181 125Q235 201 264 278T294 449Q294 544 264 621T181 774Z" horiz-adv-x="540" unicode="⁾"/>
			<glyph d="M270 399Q379 399 435 326T491 128Q491 3 435 -69T270 -142Q162 -142 105 -69T49 128Q49 254 105 326T270 399ZM270 345Q113 345 113 128Q113 26 151 -31T270 -88Q427 -88 427 128Q427 345 270 345Z" horiz-adv-x="540" unicode="₀"/>
			<glyph d="M272 387H328V-77H444V-130H121V-78H265V321L121 249L96 295Z" horiz-adv-x="540" unicode="₁"/>
			<glyph d="M267 398Q350 398 395 356T441 251Q441 199 418 157T343 65T175 -77H458V-130H91V-80Q220 27 276 78T354 167T377 246Q377 291 346 318T262 346Q217 346 184 330T119 284L82 318Q121 359 163 378T267 398Z" horiz-adv-x="540" unicode="₂"/>
			<glyph d="M273 399Q354 399 400 361T446 263Q446 209 418 180T348 143V141Q396 136 429 105T463 16Q463 -55 410 -98T265 -142Q202 -142 158 -124T77 -71L111 -34Q145 -64 180 -76T265 -89Q327 -89 362 -61T398 18Q398 67 366 90T282 114H197V165H271Q322 165 352 188T383 256Q383 300 353 323T267 346Q225 346 191 334T125 298L93 334Q131 367 174 383T273 399Z" horiz-adv-x="540" unicode="₃"/>
			<glyph d="M245 387H312L134 50H334V195H395V50H476V-4H395V-130H334V-4H64V44Z" horiz-adv-x="540" unicode="₄"/>
			<glyph d="M118 387H437V334H179V170Q230 192 294 192Q373 192 419 149T465 34Q465 -46 411 -94T260 -142Q199 -142 156 -124T75 -71L111 -34Q145 -64 179 -76T261 -89Q327 -89 363 -56T400 33Q400 84 368 113T279 142Q243 142 216 135T162 115H118Z" horiz-adv-x="540" unicode="₅"/>
			<glyph d="M303 399Q342 399 371 390T429 365L406 321Q383 335 359 341T304 348Q226 348 183 294T135 146Q165 176 204 192T297 208Q374 208 421 164T469 46Q469 -39 417 -90T274 -142Q171 -142 120 -77T70 98Q70 237 130 318T303 399ZM285 159Q194 159 134 87Q135 1 168 -44T274 -90Q338 -90 371 -54T405 44Q405 100 373 129T285 159Z" horiz-adv-x="540" unicode="₆"/>
			<glyph d="M84 386H456V336Q268 129 246 -130H173Q192 3 242 117T379 333H84Z" horiz-adv-x="540" unicode="₇"/>
			<glyph d="M270 399Q348 399 398 364T448 269Q448 228 424 197T349 141Q416 117 445 86T475 3Q475 -39 449 -72T377 -123T269 -142Q174 -142 119 -102T64 2Q64 54 96 88T190 147Q138 168 115 195T93 267Q93 326 143 362T270 399ZM270 352Q219 352 187 328T155 265Q155 232 178 210T256 172L296 158Q343 183 364 207T385 265Q385 306 353 329T270 352ZM243 128Q184 108 156 79T129 8Q129 -40 166 -66T270 -92Q335 -92 373 -66T411 6Q411 47 383 68T284 114Z" horiz-adv-x="540" unicode="₈"/>
			<glyph d="M270 399Q371 399 420 337T469 161Q469 18 383 -61T136 -140V-88Q257 -88 327 -34T405 113Q343 51 246 51Q169 51 119 95T70 217Q70 297 123 348T270 399ZM269 347Q203 347 168 312T134 219Q134 161 167 130T259 100Q354 100 406 170Q404 261 373 304T269 347Z" horiz-adv-x="540" unicode="₉"/>
			<glyph d="M244 291H297V170H420V120H297V-1H244V120H120V170H244Z" horiz-adv-x="540" unicode="₊"/>
			<glyph d="M120 170H420V120H120Z" horiz-adv-x="540" unicode="₋"/>
			<glyph d="M120 250H420V200H120ZM120 94H420V44H120Z" horiz-adv-x="540" unicode="₌"/>
			<glyph d="M320 479L359 453Q306 376 276 299T246 128Q246 35 275 -41T359 -196L320 -222Q255 -139 218 -56T181 128Q181 229 218 313T320 479Z" horiz-adv-x="540" unicode="₍"/>
			<glyph d="M220 479Q285 399 322 314T359 128Q359 27 322 -56T220 -222L181 -196Q235 -120 264 -43T294 128Q294 223 264 300T181 453Z" horiz-adv-x="540" unicode="₎"/>
			<glyph d="M383 726Q444 726 498 703T592 641L557 597Q521 631 477 649T385 668Q292 668 235 609T161 448H478V400H156Q154 370 154 355Q154 333 155 322H443V273H159Q174 164 230 104T384 45Q435 45 482 66T565 125L602 81Q561 36 504 10T382 -15Q259 -15 185 60T94 273H4V322H90Q89 333 89 355Q89 370 91 400H6V448H96Q116 577 190 651T383 726Z" unicode="€"/>
			<glyph d="M64 708H545V661H362Q430 627 452 561H545V515H462Q464 495 464 485Q464 399 417 347T296 277L479 0H402L231 268H64V320H223Q298 320 346 362T395 487Q395 497 393 515H64V561H382Q363 609 320 634T222 659H64Z" unicode="₹"/>
			<glyph d="M155 708H222V451L451 550L470 506L222 398V321L451 420L470 375L222 267V58Q327 58 387 80T472 144T497 250H558Q558 125 481 62T222 0H155V238L69 201L50 246L155 292V369L69 332L50 376L155 422Z" unicode="₺"/>
			<glyph d="M110 708H322Q425 708 490 656T555 498Q555 395 489 342T324 290H177V204H426V156H177V0H110V156H48V204H110V290H48V339H110ZM177 654V339H319Q393 339 440 379T487 498Q487 578 439 616T317 654Z" unicode="₽"/>
			<glyph d="M239 723Q295 723 326 689T358 602Q358 521 311 444T165 281V125Q165 81 185 60T243 39Q274 39 296 47L306 -2Q272 -14 232 -14Q171 -14 135 21T100 121V234L42 189L25 221Q71 255 100 279V569Q100 644 140 683T239 723ZM241 683Q206 683 185 657T165 578V336Q239 405 272 468T305 602Q305 640 288 661T241 683Z" horiz-adv-x="404" unicode="ℓ"/>
			<glyph d="M471 724Q591 724 676 676T804 544T848 354Q848 247 804 163T676 32T471 -16Q351 -16 266 32T137 163T93 354Q93 461 137 544T266 676T471 724ZM471 679Q363 679 289 637T180 521T144 354Q144 260 180 186T289 71T471 29Q579 29 652 71T761 186T797 354Q797 448 761 521T652 637T471 679ZM338 565H489Q561 565 604 532T648 428Q648 361 603 324T490 288H390V146H338ZM390 521V331H489Q537 331 566 355T595 428Q595 521 488 521Z" horiz-adv-x="941" unicode="℗"/>
			<glyph d="M125 715Q173 715 207 691L192 664Q163 684 127 684Q104 684 92 677T81 657Q81 643 91 635T134 621Q176 611 193 595T211 552Q210 520 185 503T119 486Q93 486 72 492T30 512L45 539Q63 528 79 523T116 518Q140 518 153 526T167 549Q167 566 156 573T109 589Q72 598 56 614T41 654Q41 683 63 699T125 715ZM244 708H304L374 543H376L446 708H504V492H464L465 666H464L389 492H357L283 666H281L282 492H244Z" horiz-adv-x="567" unicode="℠"/>
			<glyph d="M33 708H225V675H149V492H109V675H33ZM252 708H312L382 543H384L454 708H512V492H472L473 666H471L397 492H365L291 666H289L290 492H252Z" horiz-adv-x="575" unicode="™"/>
			<glyph d="M394 724Q500 724 577 677T695 547T736 356Q736 252 693 176T576 58H736V0H472V58Q565 87 616 165T667 354Q667 446 635 516T542 626T394 666Q307 666 246 626T153 516T122 354Q122 244 173 165T316 58V0H53V58H213Q138 100 95 176T53 356Q53 464 94 547T212 677T394 724Z" horiz-adv-x="789" unicode="Ω"/>
			<glyph d="M450 683Q588 683 673 631T795 500T832 330H215Q210 330 210 325V149Q210 129 217 121Q255 73 314 47T449 22Q525 22 584 50T698 130H765Q706 60 636 28T452 -3Q335 -3 248 42T115 164T70 332Q70 423 116 504T249 634T450 683ZM447 659Q387 659 327 635T219 562Q210 553 210 536V355Q210 350 215 350H687Q692 350 692 355V535Q692 548 682 560Q639 614 574 636T447 659Z" horiz-adv-x="902" unicode="℮"/>
			<glyph d="M198 724Q301 724 383 674T512 532T559 319Q559 168 496 77T304 -14Q183 -14 117 55T51 242Q51 320 81 376T165 461T292 491Q355 491 402 466T489 395Q479 477 439 540T336 638T192 673ZM296 439Q213 439 166 388T119 240Q119 147 165 94T303 42Q402 42 446 113T491 314V325Q452 380 405 409T296 439Z" unicode="∂"/>
			<glyph d="M291 708H364L646 0H8ZM327 646L100 54H552Z" horiz-adv-x="654" unicode="∆"/>
			<glyph d="M35 708H639V655H544V-120H480V655H194V-120H130V655H35Z" horiz-adv-x="674" unicode="∏"/>
			<glyph d="M65 708H543V653H142L363 313V290L123 -64L556 -63V-120H54V-62L296 301L65 650Z" unicode="∑"/>
			<glyph d="M105 318H505V265H105Z" unicode="−"/>
			<glyph d="M290 709H352L-66 0H-128Z" horiz-adv-x="207" unicode="∕"/>
			<glyph d="M305 378Q351 378 351 332Q351 288 305 288Q260 288 260 332Q260 378 305 378Z" unicode="∙"/>
			<glyph d="M500 708H563L349 -120H265L128 244H46V299H175L305 -51Z" unicode="√"/>
			<glyph d="M258 513Q323 513 367 479T449 371Q485 444 529 478T643 513Q729 513 776 459T824 320Q824 235 776 180T642 126Q577 126 532 158T450 261Q416 193 370 159T257 126Q171 126 123 180T76 319Q76 374 97 418T160 487T258 513ZM262 463Q205 463 170 425T136 319Q136 252 170 214T262 176Q320 176 355 209T425 318Q396 388 359 425T262 463ZM637 463Q579 463 544 429T474 313Q504 245 541 210T637 176Q695 176 729 212T764 320Q764 390 730 426T637 463Z" horiz-adv-x="900" unicode="∞"/>
			<glyph d="M411 724Q432 724 458 718L447 669Q431 671 418 671Q374 671 356 646T338 568V-101Q338 -258 199 -258Q172 -258 152 -252L163 -203Q175 -206 192 -206Q236 -206 254 -180T273 -102V567Q273 646 307 685T411 724Z" unicode="∫"/>
			<glyph d="M228 418Q251 418 272 410T319 388Q344 375 360 368T395 362Q421 362 440 374T486 416L517 396Q469 317 395 317Q371 317 349 325T303 347Q277 361 260 367T228 373Q204 373 182 361T134 319L104 339Q155 418 228 418ZM228 252Q251 252 272 244T319 222Q344 209 360 202T395 196Q421 196 440 208T486 250L517 230Q469 151 395 151Q371 151 349 159T303 181Q277 195 260 201T228 207Q204 207 182 195T134 153L104 173Q155 252 228 252Z" unicode="≈"/>
			<glyph d="M456 564L500 539L421 418H507V365H387L291 218H507V165H256L150 2L106 27L196 165H107V218H230L326 365H107V418H361Z" unicode="≠"/>
			<glyph d="M473 602L500 559L174 363L500 167L473 124L112 337V387ZM105 58H505V5H105Z" unicode="≤"/>
			<glyph d="M105 58H505V5H105ZM137 602L498 387V337L137 124L110 167L436 363L110 559Z" unicode="≥"/>
			<glyph d="M271 708H338L545 354L338 0H271L65 354ZM304 660L129 354L304 48L481 354Z" unicode="◊"/>
			<glyph d="M287 722Q381 722 464 671Q506 722 591 722Q634 722 672 711L658 664Q624 671 596 670Q496 669 496 557V503H625V453H496V0H431V453H172V0H107V453H15V495L107 503V559Q107 636 151 679T287 722ZM288 670Q226 670 199 641T172 557V503H431V559Q431 598 441 627Q366 670 288 670Z" horiz-adv-x="641" unicode="ﬀ"/>
			<glyph d="M287 722Q383 722 468 669L445 624Q371 670 288 670Q226 670 199 641T172 557V503H473V0H408V453H172V0H107V453H15V495L107 503V559Q107 636 151 679T287 722Z" horiz-adv-x="564" unicode="ﬁ"/>
			<glyph d="M294 722Q389 722 473 674V0H408V650Q354 671 290 670Q227 670 199 641T172 557V503H302V453H172V0H107V453H15V495L107 503V559Q107 636 152 679T294 722Z" horiz-adv-x="564" unicode="ﬂ"/>
			<glyph d="M287 722Q380 722 467 670Q513 722 611 722Q707 722 792 669L769 624Q695 670 612 670Q550 670 523 641T496 557V503H797V0H732V453H496V0H431V453H172V0H107V453H15V495L107 503V559Q107 636 151 679T287 722ZM288 670Q226 670 199 641T172 557V503H431V559Q431 599 442 626Q369 670 288 670Z" horiz-adv-x="888" unicode="ﬃ"/>
			<glyph d="M287 722Q380 722 467 670Q514 722 618 722Q713 722 797 674V0H732V650Q678 671 614 670Q551 670 523 641T496 557V503H626V453H496V0H431V453H172V0H107V453H15V495L107 503V559Q107 636 151 679T287 722ZM288 670Q226 670 199 641T172 557V503H431V559Q431 599 442 626Q369 670 288 670Z" horiz-adv-x="888" unicode="ﬄ"/>
		</font>
</defs>
</svg>
