<svg xmlns="http://www.w3.org/2000/svg" width="143" height="40">
  <path fill="#FFF" fill-rule="evenodd" d="M32.274167 0H3.58601855C1.60573942 0 0 1.612 0 3.6v32.8C0 38.388 1.60573942 40 3.58601855 40H32.274167c1.9802791 0 3.5860185-1.612 3.5860185-3.6V3.6c0-1.988-1.6057394-3.6-3.5860185-3.6zm1.593786 36.4c0 .8825-.7147134 1.6-1.593786 1.6H3.58601855c-.87857454 0-1.59378602-.7175-1.59378602-1.6V3.6c0-.8825.71521148-1.6 1.59378602-1.6H32.274167c.8790726 0 1.593786.7175 1.593786 1.6v32.8zM8.96504638 34l4.48252322-4-4.48252322-4v8zM25.1604027 17.7875C24.357533 16.972 22.8832809 16 20.4203834 16c-2.7009692 0-5.4816278.7055-7.470872 1.3555V6H8.96504638v17.346l2.81452652-1.28c.0453233-.0205 4.5896057-2.066 8.6408105-2.066 2.0226141 0 2.4708664 1.1215 2.4902907 2.055V34h3.9844651V22c.0024902-.256-.0214165-2.4725-1.7347365-4.2125zM19.9223253 12.5h3.9844651c1.8019743-2.05 2.7193974-4.228 2.9883488-6.5h-3.9844651c-.4392873 2.267-1.422454 4.4375-2.9883488 6.5zm110.5135697 9.4021404v-8.8511463h4.000301v8.8316052c0 2.0367908.660112 2.9557267 2.260734 2.9557267 1.599619 0 2.239667-.9189359 2.239667-2.9557267v-8.8316052h3.920546v8.8511463c0 3.9167513-1.880016 6.1534633-6.200341 6.1534633-4.320827 0-6.220907-2.236712-6.220907-6.1534633zm-16.853933-8.8511463h3.9998v5.3552817l4.081059-5.3552817h4.640349l-4.980939 5.8342908 5.420345 8.9508565h-4.520465l-3.499699-5.9144598-1.14065 1.3187782v4.5956816h-3.9998V13.0509941zm-18.9942814 7.3920726c0-5.4134043 3.6998395-7.6721627 7.2802974-7.6721627 3.560393 0 7.260734 2.2587584 7.260734 7.6721627 0 5.4144063-3.700341 7.6721626-7.260734 7.6721626-3.5804579 0-7.2802974-2.2577563-7.2802974-7.6721626zm10.5402284 0c0-2.7172243-1.179775-4.3752171-3.259931-4.3752171-2.1002212 0-3.2799965 1.6579928-3.2799965 4.3752171 0 2.7182264 1.1797753 4.4759292 3.2799965 4.4759292 2.080156 0 3.259931-1.7577028 3.259931-4.4759292zm-26.6146666-7.3920726H84.29374c3.8001605 0 6.1205858 1.2591526 6.1205858 4.8151438 0 2.317382-.980638 3.6567035-2.9203451 4.3150905l3.1400482 5.654913h-4.2400682l-2.8606541-5.1343163h-1.1000201v5.1343163h-3.9200441V13.0509941zm5.6400481 6.6129312c1.6402488 0 2.3600522-.459468 2.3600522-1.6980773 0-1.2381083-.7198034-1.6785361-2.3600522-1.6785361h-1.720004v3.3766134h1.720004zm-20.9349919-6.6129312h10.5607945v3.3169877h-6.5604936v2.3975509h4.6804775v3.1170666h-4.6804775v2.7367654h6.9010835v3.2167767H63.2182986V13.0509941zm-18.0738363 0h4.0003009v5.4940741h4.9202448v-5.4940741h4.0008026v14.7851473H54.065008V21.862056h-4.9202448v5.9740854h-4.0003009V13.0509941z"/>
</svg>