<svg width="123" height="35" viewBox="0 0 123 35" fill="none" xmlns="http://www.w3.org/2000/svg">
<path d="M27.8344 0H3.09237C1.38472 0 0 1.3858 0 3.09477V31.2955C0 33.0044 1.38472 34.3902 3.09237 34.3902H27.8344C29.542 34.3902 30.9267 33.0044 30.9267 31.2955V3.09477C30.9267 1.3858 29.542 0 27.8344 0ZM29.2089 31.2955C29.2089 32.0543 28.5926 32.671 27.8344 32.671H3.09237C2.33409 32.671 1.71787 32.0543 1.71787 31.2955V3.09477C1.71787 2.33591 2.33409 1.7192 3.09237 1.7192H27.8344C28.5926 1.7192 29.2089 2.33591 29.2089 3.09477V31.2955Z" fill="white"/>
<path d="M7.73193 29.2316L11.5979 25.7932L7.73193 22.3538V29.2316Z" fill="white"/>
<path d="M21.6997 15.2929C21.0068 14.5913 19.7355 13.7557 17.612 13.7557C15.282 13.7557 12.8845 14.3622 11.1687 14.9206V5.15762H7.73193V20.071L10.159 18.9706C10.1979 18.9532 14.117 17.1941 17.611 17.1941C19.3554 17.1941 19.7417 18.1585 19.7591 18.9614V29.2316H23.1958V18.9143C23.1979 18.6944 23.1774 16.7881 21.6997 15.2929Z" fill="white"/>
<path d="M17.1818 10.7468H20.6185C22.1729 8.98363 22.9639 7.11102 23.1958 5.15863H19.7591C19.3799 7.10795 18.5317 8.9734 17.1818 10.7468Z" fill="white"/>
<path d="M42.1496 24.4739L41.9595 25.0855C41.7459 25.0384 41.5385 25.019 41.3382 25.0251C40.7107 25.0323 40.397 25.3759 40.397 26.0571V26.4784H41.6795V27.1299H40.397V31.5808H39.5457V27.1299H38.6546V26.5889L39.5457 26.4784V26.0376C39.5457 25.4966 39.6888 25.0804 39.976 24.7899C40.2631 24.4995 40.6903 24.3501 41.2585 24.344C41.5855 24.344 41.8829 24.387 42.1496 24.4739Z" fill="white"/>
<path d="M42.6105 27.6218C42.6105 27.2475 42.587 26.8671 42.54 26.4794H43.3514C43.3851 26.7065 43.4076 26.9775 43.4219 27.2915H43.4423C43.7356 26.6564 44.2701 26.3393 45.0447 26.3393C45.0979 26.3393 45.195 26.3496 45.335 26.369L45.2849 27.1002C45.2185 27.0869 45.1142 27.0798 44.9742 27.0798C44.4868 27.0798 44.1127 27.2434 43.8521 27.5707C43.5915 27.898 43.4618 28.3224 43.4618 28.844V31.5808H42.6105V27.6208V27.6218Z" fill="white"/>
<path d="M50.7634 29.0148C50.7634 29.5425 50.6613 30.012 50.4579 30.4231C50.2545 30.8342 49.9602 31.1533 49.577 31.3804C49.1927 31.6074 48.7339 31.7209 48.1994 31.7209C47.665 31.7209 47.2143 31.6054 46.827 31.3753C46.4397 31.1451 46.1453 30.826 45.945 30.418C45.7447 30.0109 45.6446 29.5425 45.6446 29.0148C45.6446 28.1997 45.8684 27.5503 46.316 27.0655C46.7636 26.5807 47.3911 26.3383 48.1994 26.3383C48.74 26.3383 49.2019 26.4508 49.5862 26.6738C49.9704 26.8977 50.2627 27.2097 50.463 27.6106C50.6633 28.0115 50.7634 28.4789 50.7634 29.0138V29.0148ZM46.5265 29.0148C46.5265 29.6233 46.6655 30.1122 46.9424 30.4834C47.2194 30.8547 47.6384 31.0398 48.1994 31.0398C48.7605 31.0398 49.1907 30.8547 49.4717 30.4834C49.7517 30.1122 49.8928 29.6233 49.8928 29.0148C49.8928 28.4063 49.7528 27.9225 49.4717 27.5615C49.1907 27.2005 48.7666 27.0205 48.1994 27.0205C47.6323 27.0205 47.2112 27.2005 46.9373 27.5615C46.6635 27.9225 46.5265 28.4073 46.5265 29.0148Z" fill="white"/>
<path d="M51.8651 27.6218C51.8651 27.2475 51.8416 26.8671 51.7946 26.4794H52.606C52.6398 26.6594 52.6622 26.9008 52.6765 27.2015H52.697C52.8574 26.9478 53.0823 26.7402 53.3735 26.5797C53.6637 26.4191 53.9999 26.3393 54.3801 26.3393C54.8144 26.3393 55.168 26.4314 55.4419 26.6155C55.7158 26.7996 55.9161 27.0511 56.0428 27.3723H56.0632C56.237 27.0511 56.474 26.7996 56.7745 26.6155C57.0749 26.4314 57.4357 26.3393 57.8557 26.3393C58.2757 26.3393 58.6273 26.4314 58.9073 26.6155C59.1883 26.7996 59.3947 27.0399 59.5286 27.3375C59.6615 27.6351 59.7289 27.9603 59.7289 28.3152V31.5828H58.8776V28.4349C58.8776 28.0401 58.7826 27.7098 58.5925 27.4428C58.4024 27.1759 58.0969 27.0419 57.6758 27.0419C57.3682 27.0419 57.1056 27.1217 56.8849 27.2823C56.6641 27.4428 56.4975 27.6566 56.3841 27.9235C56.2707 28.1905 56.2135 28.4778 56.2135 28.7857V31.5828H55.3622V28.4155C55.3622 28.0278 55.2651 27.7026 55.072 27.4377C54.8778 27.1739 54.5743 27.0419 54.1604 27.0419C53.7199 27.0419 53.3694 27.1974 53.1088 27.5083C52.8482 27.8192 52.7184 28.2017 52.7184 28.6558V31.5828H51.8672V27.6228L51.8651 27.6218Z" fill="white"/>
<path d="M76.5366 30.9191L76.9873 30.3576C77.2745 30.5847 77.5718 30.7483 77.8784 30.8485C78.186 30.9488 78.5325 30.9989 78.9198 30.9989C79.4001 30.9989 79.7894 30.8874 80.0868 30.6634C80.3842 30.4394 80.5324 30.1142 80.5324 29.6857C80.5324 29.385 80.4619 29.1416 80.3219 28.9544C80.1819 28.7673 79.9877 28.6169 79.7414 28.5034C79.4941 28.3899 79.1671 28.2794 78.7593 28.1731C78.0981 27.9992 77.6045 27.764 77.2775 27.4664C76.9505 27.1688 76.787 26.7535 76.787 26.2186C76.787 25.6244 77.0088 25.1601 77.4533 24.8257C77.8978 24.4913 78.463 24.3246 79.1507 24.3246C79.585 24.3246 79.9764 24.3818 80.328 24.4954C80.6785 24.6089 81.0045 24.7756 81.305 24.9965L80.9044 25.5774C80.6243 25.3974 80.3454 25.2634 80.0684 25.1765C79.7915 25.0896 79.4859 25.0466 79.1517 25.0466C78.7041 25.0466 78.3434 25.1417 78.0695 25.3319C77.7956 25.5222 77.6587 25.7983 77.6587 26.1593C77.6587 26.5204 77.7844 26.7924 78.0338 26.9765C78.2841 27.1606 78.6929 27.3263 79.2611 27.4725C79.9754 27.6597 80.516 27.9133 80.8839 28.2344C81.2508 28.5556 81.4347 29.0301 81.4347 29.6581C81.4347 30.1122 81.3223 30.4967 81.0996 30.8107C80.8757 31.1247 80.5743 31.3609 80.1931 31.5174C79.8119 31.6739 79.3847 31.7526 78.9106 31.7526C77.9888 31.7526 77.1978 31.4755 76.5366 30.9211V30.9191Z" fill="white"/>
<path d="M82.195 30.1879C82.195 29.5262 82.4342 29.067 82.9114 28.8092C83.3887 28.5525 84.1081 28.4237 85.0697 28.4237C85.3027 28.4237 85.4805 28.4267 85.6001 28.4339V28.1434C85.6001 27.763 85.4969 27.4787 85.2894 27.2915C85.083 27.1043 84.7652 27.0113 84.338 27.0113C83.7974 27.0113 83.2865 27.1555 82.8051 27.4418L82.5047 26.8701C83.079 26.5163 83.7065 26.3383 84.3871 26.3383C85.1014 26.3383 85.6236 26.505 85.9547 26.8395C86.2858 27.1739 86.4504 27.6812 86.4504 28.3633V30.4487C86.4504 30.8158 86.4739 31.1942 86.5209 31.5808H85.7391C85.6921 31.2873 85.6686 31.0562 85.6686 30.8895H85.6389C85.4519 31.1635 85.2169 31.3701 84.9328 31.5113C84.6487 31.6514 84.2839 31.722 83.8363 31.722C83.3416 31.722 82.9451 31.59 82.6437 31.3262C82.3432 31.0623 82.193 30.6829 82.193 30.1889L82.195 30.1879ZM85.6011 29.6959V29.0342L85.1505 29.024C84.6497 29.024 84.2501 29.0578 83.9538 29.1242C83.6564 29.1907 83.4367 29.3042 83.2926 29.4648C83.1485 29.6254 83.077 29.8493 83.077 30.1367C83.077 30.4241 83.1638 30.6563 83.3376 30.8138C83.5113 30.9713 83.7514 31.049 84.059 31.049C84.3666 31.049 84.6569 30.9805 84.8909 30.8434C85.1249 30.7064 85.3017 30.5346 85.4213 30.327C85.5419 30.1193 85.6022 29.9097 85.6022 29.6949L85.6011 29.6959Z" fill="white"/>
<path d="M88.9061 24.4841V31.5808H88.0548V24.4841H88.9061Z" fill="white"/>
<path d="M94.8557 29.3359H91.0695C91.1032 29.8575 91.2596 30.2717 91.5406 30.5785C91.8216 30.8864 92.2222 31.0398 92.7424 31.0398C93.05 31.0398 93.3249 30.9978 93.5691 30.914C93.8124 30.8301 94.0586 30.7053 94.3049 30.5376L94.6861 31.0889C94.399 31.2965 94.0934 31.453 93.7694 31.5603C93.4455 31.6667 93.0868 31.7209 92.6923 31.7209C91.9105 31.7209 91.3015 31.4734 90.8641 30.9794C90.4267 30.4855 90.208 29.8268 90.208 29.0046C90.208 28.4768 90.301 28.0125 90.489 27.6116C90.6761 27.2107 90.9479 26.8988 91.3056 26.6748C91.6622 26.4508 92.0914 26.3393 92.5922 26.3393C93.3331 26.3393 93.8992 26.5797 94.2896 27.0614C94.68 27.5421 94.8752 28.1813 94.8752 28.9759C94.8752 29.1365 94.868 29.2561 94.8547 29.3369L94.8557 29.3359ZM94.0443 28.6742C94.0311 28.1669 93.9002 27.7589 93.654 27.451C93.4067 27.1442 93.05 26.9898 92.582 26.9898C92.1139 26.9898 91.7409 27.1483 91.4803 27.4664C91.2197 27.7834 91.0797 28.1864 91.0593 28.6742H94.0443Z" fill="white"/>
<path d="M99.2521 26.8793L98.8709 27.4101C98.4765 27.136 98.0493 26.999 97.5884 26.999C97.2675 26.999 97.0182 27.0604 96.8373 27.1841C96.6564 27.3079 96.5665 27.4838 96.5665 27.7108C96.5665 27.8775 96.6033 28.0146 96.6769 28.122C96.7504 28.2293 96.8731 28.3193 97.0478 28.393C97.2215 28.4666 97.475 28.5433 97.8092 28.6231C98.3303 28.7499 98.7156 28.936 98.966 29.1795C99.2164 29.4229 99.3421 29.743 99.3421 30.1367C99.3421 30.6379 99.155 31.0275 98.781 31.3047C98.407 31.5818 97.9461 31.7209 97.3994 31.7209C96.6646 31.7209 96.0504 31.5235 95.5568 31.1298L95.9472 30.599C96.1741 30.7524 96.3979 30.8659 96.6186 30.9396C96.8393 31.0132 97.0897 31.05 97.3697 31.05C97.71 31.05 97.9788 30.9764 98.176 30.8291C98.3733 30.6818 98.4714 30.4722 98.4714 30.1981C98.4714 30.0181 98.4346 29.8718 98.361 29.7624C98.2874 29.652 98.1658 29.5599 97.9952 29.4873C97.8245 29.4137 97.569 29.3339 97.2287 29.247C96.7014 29.113 96.3171 28.933 96.077 28.7059C95.8368 28.4789 95.7162 28.1649 95.7162 27.764C95.7162 27.3293 95.8849 26.9837 96.2221 26.7259C96.5593 26.4692 97.0049 26.3404 97.5598 26.3404C98.2138 26.3404 98.7779 26.5204 99.2521 26.8814V26.8793Z" fill="white"/>
<path d="M103.52 24.4739L103.33 25.0855C103.116 25.0384 102.909 25.019 102.708 25.0251C102.081 25.0323 101.767 25.3759 101.767 26.0571V26.4784H103.05V27.1299H101.767V31.5808H100.916V27.1299H100.025V26.5889L100.916 26.4784V26.0376C100.916 25.4966 101.059 25.0804 101.346 24.7899C101.633 24.4995 102.06 24.3501 102.629 24.344C102.956 24.344 103.253 24.387 103.52 24.4739Z" fill="white"/>
<path d="M108.738 29.0148C108.738 29.5425 108.636 30.012 108.432 30.4231C108.229 30.8342 107.934 31.1533 107.551 31.3804C107.167 31.6074 106.708 31.7209 106.174 31.7209C105.639 31.7209 105.189 31.6054 104.801 31.3753C104.414 31.1451 104.12 30.826 103.919 30.418C103.719 30.0109 103.619 29.5425 103.619 29.0148C103.619 28.1997 103.843 27.5503 104.29 27.0655C104.738 26.5807 105.365 26.3383 106.174 26.3383C106.714 26.3383 107.176 26.4508 107.56 26.6738C107.945 26.8977 108.237 27.2097 108.437 27.6106C108.638 28.0115 108.738 28.4789 108.738 29.0138V29.0148ZM104.501 29.0148C104.501 29.6233 104.64 30.1122 104.917 30.4834C105.194 30.8547 105.613 31.0398 106.174 31.0398C106.735 31.0398 107.165 30.8547 107.446 30.4834C107.726 30.1122 107.867 29.6233 107.867 29.0148C107.867 28.4063 107.727 27.9225 107.446 27.5615C107.165 27.2005 106.741 27.0205 106.174 27.0205C105.606 27.0205 105.185 27.2005 104.912 27.5615C104.638 27.9225 104.501 28.4073 104.501 29.0148Z" fill="white"/>
<path d="M109.839 27.6218C109.839 27.2475 109.816 26.8671 109.769 26.4794H110.58C110.614 26.7065 110.636 26.9775 110.651 27.2915H110.671C110.964 26.6564 111.499 26.3393 112.274 26.3393C112.327 26.3393 112.424 26.3496 112.564 26.369L112.514 27.1002C112.447 27.0869 112.343 27.0798 112.203 27.0798C111.716 27.0798 111.342 27.2434 111.081 27.5707C110.82 27.898 110.691 28.3224 110.691 28.844V31.5808H109.839V27.6208V27.6218Z" fill="white"/>
<path d="M115.399 26.3383C115.72 26.3383 116.025 26.3874 116.315 26.4835C116.606 26.5807 116.864 26.7157 117.091 26.8896L116.751 27.4807C116.363 27.1933 115.913 27.0501 115.399 27.0501C114.851 27.0501 114.437 27.2291 114.157 27.586C113.877 27.944 113.736 28.4226 113.736 29.024C113.736 29.6254 113.876 30.0887 114.157 30.4528C114.438 30.8168 114.848 30.9989 115.389 30.9989C115.85 30.9989 116.307 30.8547 116.762 30.5683L117.073 31.1697C116.566 31.5368 115.984 31.7209 115.33 31.7209C114.756 31.7209 114.285 31.5921 113.918 31.3354C113.551 31.0787 113.285 30.7463 113.122 30.3382C112.958 29.9312 112.877 29.4924 112.877 29.025C112.877 28.2099 113.1 27.5584 113.548 27.0706C113.996 26.5828 114.613 26.3383 115.401 26.3383H115.399Z" fill="white"/>
<path d="M122.34 29.3359H118.553C118.587 29.8575 118.743 30.2717 119.024 30.5785C119.306 30.8864 119.706 31.0398 120.226 31.0398C120.534 31.0398 120.809 30.9978 121.053 30.914C121.296 30.8301 121.543 30.7053 121.789 30.5376L122.17 31.0889C121.883 31.2965 121.577 31.453 121.253 31.5603C120.929 31.6667 120.571 31.7209 120.176 31.7209C119.394 31.7209 118.785 31.4734 118.348 30.9794C117.911 30.4855 117.692 29.8268 117.692 29.0046C117.692 28.4768 117.785 28.0125 117.973 27.6116C118.16 27.2107 118.432 26.8988 118.789 26.6748C119.146 26.4508 119.575 26.3393 120.076 26.3393C120.817 26.3393 121.383 26.5797 121.773 27.0614C122.164 27.5421 122.359 28.1813 122.359 28.9759C122.359 29.1365 122.352 29.2561 122.339 29.3369L122.34 29.3359ZM121.528 28.6742C121.515 28.1669 121.384 27.7589 121.138 27.451C120.891 27.1442 120.534 26.9898 120.066 26.9898C119.598 26.9898 119.225 27.1483 118.964 27.4664C118.704 27.7834 118.564 28.1864 118.543 28.6742H121.528Z" fill="white"/>
<path d="M67.4015 25.2072C67.6039 24.9904 67.8491 24.8196 68.121 24.705C68.3908 24.5854 68.682 24.523 68.9763 24.523C69.3688 24.525 69.754 24.6324 70.0913 24.8359C70.4285 25.0394 70.7065 25.3299 70.8955 25.6787C71.2409 25.5252 71.6139 25.4445 71.9921 25.4424C72.7125 25.4424 73.4033 25.7318 73.9123 26.2483C74.4212 26.7638 74.7073 27.4633 74.7073 28.1935C74.7073 28.9238 74.4212 29.6223 73.9123 30.1388C73.4033 30.6542 72.7125 30.9447 71.9921 30.9447C71.8153 30.9477 71.6385 30.9263 71.4658 30.8833C71.2225 31.3272 70.8199 31.6596 70.3416 31.8109C69.8603 31.9582 69.3412 31.9204 68.8854 31.7046C68.7127 32.1259 68.4132 32.4818 68.03 32.7222C67.6509 32.9717 67.2063 33.0985 66.7536 33.0863C66.305 33.0822 65.8686 32.9359 65.5059 32.67C65.14 32.4051 64.862 32.0349 64.7087 31.6074C64.5657 31.6381 64.4206 31.6534 64.2744 31.6524C63.9076 31.6463 63.5489 31.543 63.2321 31.3538C62.9163 31.1646 62.6547 30.8956 62.4717 30.5724C62.2898 30.2492 62.1938 29.8841 62.1927 29.5129C62.1927 29.1416 62.2868 28.7755 62.4676 28.4523C62.6506 28.1301 62.9153 27.8632 63.2341 27.6781C63.0001 27.1299 62.9735 26.5132 63.1595 25.9456C63.3465 25.381 63.7277 24.9034 64.2346 24.6007C64.7445 24.2959 65.3485 24.1926 65.9289 24.3123C66.5135 24.4135 67.0387 24.7337 67.4015 25.2092V25.2072Z" fill="#0D9DDA"/>
<path d="M38.6597 2.67752H42.0852V7.39127H46.2987V2.67752H49.7252V15.3624H46.2987V10.2365H42.0852V15.3624H38.6597V2.67752Z" fill="white"/>
<path d="M54.1369 2.67752H63.18V5.52275H57.5624V7.57945H61.5704V10.2539H57.5624V12.6021H63.4723V15.3624H54.1369V2.67752Z" fill="white"/>
<path d="M67.235 2.67752H72.1852C75.4391 2.67752 77.4267 3.75752 77.4267 6.80832C77.4267 8.7965 76.5867 9.94604 74.926 10.5106L77.6148 15.3624H73.9838L71.5343 10.9575H70.592V15.3624H67.235V2.67752ZM72.0646 8.35161C73.4688 8.35161 74.086 7.95684 74.086 6.89525C74.086 5.83366 73.4698 5.45525 72.0646 5.45525H70.592V8.35263H72.0646V8.35161Z" fill="white"/>
<path d="M81.0004 9.01944C81.0004 4.37523 84.1684 2.43716 87.2352 2.43716C90.3021 2.43716 93.4527 4.37523 93.4527 9.01944C93.4527 13.6636 90.2837 15.6017 87.2352 15.6017C84.1868 15.6017 81.0004 13.6647 81.0004 9.01944ZM90.0261 9.01944C90.0261 6.68864 89.0154 5.26603 87.2342 5.26603C85.453 5.26603 84.4249 6.68864 84.4249 9.01944C84.4249 11.3502 85.4356 12.8598 87.2342 12.8598C89.0328 12.8598 90.0261 11.3513 90.0261 9.01944Z" fill="white"/>
<path d="M97.2655 2.67751H100.691V7.2716L104.186 2.67751H108.159L103.894 7.68273L108.535 15.3624H104.664L101.667 10.2876L100.69 11.4188V15.3614H97.2645V2.67648L97.2655 2.67751Z" fill="white"/>
<path d="M111.699 10.2713V2.67752H115.125V10.2549C115.125 12.0027 115.69 12.7913 117.06 12.7913C118.431 12.7913 118.978 12.0027 118.978 10.2549V2.67752H122.336V10.2713C122.336 13.632 120.726 15.5506 117.026 15.5506C113.325 15.5506 111.698 13.632 111.698 10.2713H111.699Z" fill="white"/>
</svg>
